G75*
%MOIN*%
%OFA0B0*%
%FSLAX24Y24*%
%IPPOS*%
%LPD*%
%AMOC8*
5,1,8,0,0,1.08239X$1,22.5*
%
%ADD10R,0.0600X0.0600*%
%ADD11C,0.0600*%
%ADD12C,0.0660*%
%ADD13R,0.0660X0.0660*%
%ADD14C,0.0100*%
%ADD15C,0.0400*%
D10*
X003295Y003269D03*
X008000Y015600D03*
D11*
X008290Y004270D03*
X007290Y004270D03*
X006290Y004270D03*
X005290Y004270D03*
X004290Y004270D03*
X003290Y004270D03*
X004290Y003270D03*
X005290Y003270D03*
X006290Y003270D03*
X007290Y003270D03*
X008290Y003270D03*
X009290Y003270D03*
X010290Y003270D03*
X011290Y003270D03*
X012290Y003270D03*
X013290Y003270D03*
X014290Y003270D03*
X015290Y003270D03*
X016290Y003270D03*
X017290Y003270D03*
X018290Y003270D03*
X019290Y003270D03*
X020290Y003270D03*
X021290Y003270D03*
X022290Y003270D03*
X022290Y004270D03*
X021290Y004270D03*
X020290Y004270D03*
X019290Y004270D03*
X018290Y004270D03*
X017290Y004270D03*
X016290Y004270D03*
X015290Y004270D03*
X014290Y004270D03*
X013290Y004270D03*
X012290Y004270D03*
X011290Y004270D03*
X010290Y004270D03*
X009290Y004270D03*
D12*
X008000Y008600D03*
X008000Y009600D03*
X008000Y010600D03*
X008000Y011600D03*
X008000Y012600D03*
X008000Y013600D03*
X008000Y014600D03*
X017000Y014600D03*
X017000Y013600D03*
X017000Y012600D03*
X017000Y011600D03*
X017000Y010600D03*
X017000Y009600D03*
X017000Y008600D03*
D13*
X017000Y015600D03*
D14*
X002000Y005100D02*
X002000Y002100D01*
X003000Y001100D01*
X002500Y002100D02*
X002500Y004100D01*
X003290Y004270D02*
X003500Y004100D01*
X004500Y004100D01*
X004290Y004270D01*
X004500Y004100D02*
X005500Y005100D01*
X005500Y017100D01*
X017000Y017100D01*
X019000Y015100D01*
X019000Y010100D01*
X018000Y009600D02*
X018000Y011100D01*
X019500Y011100D02*
X019500Y006600D01*
X020000Y006600D02*
X020000Y011100D01*
X020500Y011100D02*
X019500Y012100D01*
X020500Y011100D02*
X020500Y006100D01*
X020000Y006600D02*
X019500Y006100D01*
X019000Y005600D02*
X019000Y007100D01*
X017500Y007100D02*
X017500Y004100D01*
X017290Y004270D01*
X018000Y005100D02*
X018000Y009100D01*
X017500Y009600D01*
X017500Y016100D01*
X017000Y016600D01*
X007500Y016600D01*
X007500Y015100D01*
X008000Y014600D01*
X008000Y013600D02*
X007500Y013100D01*
X007500Y006600D01*
X008500Y005600D01*
X008000Y005600D02*
X006500Y004100D01*
X006290Y004270D01*
X007290Y004270D02*
X007500Y004100D01*
X009500Y006100D01*
X010500Y006100D02*
X017000Y006100D01*
X017000Y005600D01*
X018000Y005100D02*
X019000Y005100D01*
X019000Y005600D02*
X023000Y005600D01*
X024000Y004600D01*
X024000Y000600D01*
X023000Y000600D01*
X020500Y003100D01*
X020290Y003270D01*
X019500Y004100D02*
X019290Y004270D01*
X019500Y004100D02*
X019500Y005100D01*
X022500Y005100D01*
X023000Y004600D01*
X023000Y003600D01*
X022500Y003100D01*
X022290Y003270D01*
X023000Y002600D02*
X023000Y001100D01*
X022000Y002100D02*
X023500Y003600D01*
X023500Y004600D01*
X019500Y002100D02*
X018500Y003100D01*
X018290Y003270D01*
X017500Y003100D02*
X017290Y003270D01*
X017500Y003100D02*
X019000Y001600D01*
X021500Y001600D01*
X021500Y001100D01*
X021000Y001100D02*
X021000Y000600D01*
X006500Y000600D01*
X006000Y001100D01*
X006000Y002600D01*
X005500Y003100D01*
X005290Y003270D01*
X004500Y003100D02*
X004290Y003270D01*
X004500Y003100D02*
X003500Y002100D01*
X002500Y002100D01*
X006290Y003270D02*
X006500Y003100D01*
X006500Y001100D01*
X007500Y003100D02*
X007290Y003270D01*
X007500Y003100D02*
X009500Y001100D01*
X015500Y001100D01*
X015500Y003100D01*
X015290Y003270D01*
X014500Y003100D02*
X014290Y003270D01*
X014500Y003100D02*
X013000Y001600D01*
X012500Y002100D02*
X013500Y003100D01*
X013290Y003270D01*
X014290Y004270D02*
X014500Y004100D01*
X013000Y005600D01*
X010500Y006100D02*
X008500Y004100D01*
X008290Y004270D01*
X008000Y007600D02*
X017000Y007600D01*
X017500Y007100D01*
X017000Y007600D02*
X017000Y008600D01*
X018500Y005600D02*
X018500Y014100D01*
X008000Y008600D02*
X008000Y007600D01*
X006500Y008600D02*
X007000Y009100D01*
X006000Y007600D02*
X006000Y016100D01*
X005000Y015600D02*
X004500Y015100D01*
X004500Y007600D01*
X002000Y005100D01*
D15*
X002500Y004100D03*
X003000Y001100D03*
X006500Y001100D03*
X008000Y005600D03*
X008500Y005600D03*
X009500Y006100D03*
X013000Y005600D03*
X017000Y005600D03*
X018500Y005600D03*
X019000Y005100D03*
X019500Y006100D03*
X019500Y006600D03*
X019000Y007100D03*
X020500Y006100D03*
X023500Y004600D03*
X023000Y002600D03*
X022000Y002100D03*
X021500Y001100D03*
X021000Y001100D03*
X019500Y002100D03*
X023000Y001100D03*
X013000Y001600D03*
X012500Y002100D03*
X006000Y007600D03*
X006500Y008600D03*
X007000Y009100D03*
X005000Y015600D03*
X006000Y016100D03*
X018000Y011100D03*
X019000Y010100D03*
X018000Y009600D03*
X019500Y011100D03*
X020000Y011100D03*
X019500Y012100D03*
X018500Y014100D03*
M02*
