G75*
%MOIN*%
%OFA0B0*%
%FSLAX24Y24*%
%IPPOS*%
%LPD*%
%AMOC8*
5,1,8,0,0,1.08239X$1,22.5*
%
%ADD10C,0.0867*%
%ADD11R,0.0680X0.0680*%
%ADD12C,0.0680*%
%ADD13C,0.0740*%
%ADD14R,0.0740X0.0740*%
%ADD15C,0.0480*%
D10*
X009000Y008600D03*
X010000Y008600D03*
X011000Y008600D03*
X011000Y009600D03*
X010000Y009600D03*
X009000Y009600D03*
X009000Y010600D03*
X010000Y010600D03*
X011000Y010600D03*
X011000Y011600D03*
X010000Y011600D03*
X009000Y011600D03*
X009000Y012600D03*
X010000Y012600D03*
X011000Y012600D03*
X011000Y013600D03*
X010000Y013600D03*
X009000Y013600D03*
X009000Y014600D03*
X010000Y014600D03*
X011000Y014600D03*
X011000Y015600D03*
X010000Y015600D03*
X009000Y015600D03*
X014000Y015600D03*
X015000Y015600D03*
X016000Y015600D03*
X016000Y014600D03*
X015000Y014600D03*
X014000Y014600D03*
X014000Y013600D03*
X015000Y013600D03*
X016000Y013600D03*
X016000Y012600D03*
X015000Y012600D03*
X014000Y012600D03*
X014000Y011600D03*
X015000Y011600D03*
X016000Y011600D03*
X016000Y010600D03*
X015000Y010600D03*
X014000Y010600D03*
X014000Y009600D03*
X015000Y009600D03*
X016000Y009600D03*
X016000Y008600D03*
X015000Y008600D03*
X014000Y008600D03*
D11*
X008000Y015600D03*
X003295Y003269D03*
D12*
X004290Y003270D03*
X005290Y003270D03*
X006290Y003270D03*
X007290Y003270D03*
X008290Y003270D03*
X009290Y003270D03*
X010290Y003270D03*
X011290Y003270D03*
X012290Y003270D03*
X013290Y003270D03*
X014290Y003270D03*
X015290Y003270D03*
X016290Y003270D03*
X017290Y003270D03*
X018290Y003270D03*
X019290Y003270D03*
X020290Y003270D03*
X021290Y003270D03*
X022290Y003270D03*
X022290Y004270D03*
X021290Y004270D03*
X020290Y004270D03*
X019290Y004270D03*
X018290Y004270D03*
X017290Y004270D03*
X016290Y004270D03*
X015290Y004270D03*
X014290Y004270D03*
X013290Y004270D03*
X012290Y004270D03*
X011290Y004270D03*
X010290Y004270D03*
X009290Y004270D03*
X008290Y004270D03*
X007290Y004270D03*
X006290Y004270D03*
X005290Y004270D03*
X004290Y004270D03*
X003290Y004270D03*
D13*
X008000Y008600D03*
X008000Y009600D03*
X008000Y010600D03*
X008000Y011600D03*
X008000Y012600D03*
X008000Y013600D03*
X008000Y014600D03*
X017000Y014600D03*
X017000Y013600D03*
X017000Y012600D03*
X017000Y011600D03*
X017000Y010600D03*
X017000Y009600D03*
X017000Y008600D03*
D14*
X017000Y015600D03*
D15*
X003000Y001100D03*
X006500Y001100D03*
X002500Y004100D03*
X006000Y007600D03*
X006500Y008600D03*
X007000Y009100D03*
X009500Y006100D03*
X008500Y005600D03*
X008000Y005600D03*
X012500Y002100D03*
X013000Y001600D03*
X013000Y005600D03*
X017000Y005600D03*
X018500Y005600D03*
X019000Y005100D03*
X019500Y006100D03*
X019500Y006600D03*
X019000Y007100D03*
X020500Y006100D03*
X023500Y004600D03*
X023000Y002600D03*
X022000Y002100D03*
X021500Y001100D03*
X021000Y001100D03*
X019500Y002100D03*
X023000Y001100D03*
X018000Y009600D03*
X019000Y010100D03*
X019500Y011100D03*
X020000Y011100D03*
X019500Y012100D03*
X018000Y011100D03*
X018500Y014100D03*
X006000Y016100D03*
X005000Y015600D03*
M02*
