%
M48
M72
T01C0.0240
T02C0.0400
T03C0.0787
%
T01
X3000Y1100
X6500Y1100
X2500Y4100
X6000Y7600
X6500Y8600
X7000Y9100
X9500Y6100
X8500Y5600
X8000Y5600
X12500Y2100
X13000Y1600
X13000Y5600
X17000Y5600
X18500Y5600
X19000Y5100
X19500Y6100
X19500Y6600
X19000Y7100
X20500Y6100
X23500Y4600
X23000Y2600
X22000Y2100
X21500Y1100
X21000Y1100
X19500Y2100
X23000Y1100
X18000Y9600
X19000Y10100
X19500Y11100
X20000Y11100
X19500Y12100
X18000Y11100
X18500Y14100
X6000Y16100
X5000Y15600
T02
X8000Y15600
X8000Y14600
X8000Y13600
X8000Y12600
X8000Y11600
X8000Y10600
X8000Y9600
X8000Y8600
X8290Y4270
X7290Y4270
X6290Y4270
X5290Y4270
X4290Y4270
X3290Y4270
X3295Y3269
X4290Y3270
X5290Y3270
X6290Y3270
X7290Y3270
X8290Y3270
X9290Y3270
X10290Y3270
X11290Y3270
X12290Y3270
X13290Y3270
X14290Y3270
X15290Y3270
X16290Y3270
X17290Y3270
X18290Y3270
X19290Y3270
X20290Y3270
X21290Y3270
X22290Y3270
X22290Y4270
X21290Y4270
X20290Y4270
X19290Y4270
X18290Y4270
X17290Y4270
X16290Y4270
X15290Y4270
X14290Y4270
X13290Y4270
X12290Y4270
X11290Y4270
X10290Y4270
X9290Y4270
X17000Y8600
X17000Y9600
X17000Y10600
X17000Y11600
X17000Y12600
X17000Y13600
X17000Y14600
X17000Y15600
T03
X16000Y15600
X15000Y15600
X14000Y15600
X14000Y14600
X15000Y14600
X16000Y14600
X16000Y13600
X15000Y13600
X14000Y13600
X14000Y12600
X15000Y12600
X16000Y12600
X16000Y11600
X15000Y11600
X14000Y11600
X14000Y10600
X15000Y10600
X16000Y10600
X16000Y9600
X15000Y9600
X14000Y9600
X14000Y8600
X15000Y8600
X16000Y8600
X11000Y8600
X10000Y8600
X9000Y8600
X9000Y9600
X10000Y9600
X11000Y9600
X11000Y10600
X10000Y10600
X9000Y10600
X9000Y11600
X10000Y11600
X11000Y11600
X11000Y12600
X10000Y12600
X9000Y12600
X9000Y13600
X10000Y13600
X11000Y13600
X11000Y14600
X10000Y14600
X9000Y14600
X9000Y15600
X10000Y15600
X11000Y15600
M30
