G75*
%MOIN*%
%OFA0B0*%
%FSLAX24Y24*%
%IPPOS*%
%LPD*%
%AMOC8*
5,1,8,0,0,1.08239X$1,22.5*
%
%ADD10C,0.0000*%
%ADD11C,0.0050*%
%ADD12C,0.0030*%
%ADD13C,0.0120*%
%ADD14C,0.0090*%
%ADD15C,0.0498*%
%ADD16C,0.0060*%
D10*
X000500Y000100D02*
X000500Y006100D01*
X000502Y006160D01*
X000507Y006221D01*
X000516Y006280D01*
X000529Y006339D01*
X000545Y006398D01*
X000565Y006455D01*
X000588Y006510D01*
X000615Y006565D01*
X000644Y006617D01*
X000677Y006668D01*
X000713Y006717D01*
X000751Y006763D01*
X000793Y006807D01*
X000837Y006849D01*
X000883Y006887D01*
X000932Y006923D01*
X000983Y006956D01*
X001035Y006985D01*
X001090Y007012D01*
X001145Y007035D01*
X001202Y007055D01*
X001261Y007071D01*
X001320Y007084D01*
X001379Y007093D01*
X001440Y007098D01*
X001500Y007100D01*
X002500Y007100D01*
X002576Y007102D01*
X002652Y007108D01*
X002727Y007117D01*
X002802Y007131D01*
X002876Y007148D01*
X002949Y007169D01*
X003021Y007193D01*
X003092Y007222D01*
X003161Y007253D01*
X003228Y007288D01*
X003293Y007327D01*
X003357Y007369D01*
X003418Y007414D01*
X003477Y007462D01*
X003533Y007513D01*
X003587Y007567D01*
X003638Y007623D01*
X003686Y007682D01*
X003731Y007743D01*
X003773Y007807D01*
X003812Y007872D01*
X003847Y007939D01*
X003878Y008008D01*
X003907Y008079D01*
X003931Y008151D01*
X003952Y008224D01*
X003969Y008298D01*
X003983Y008373D01*
X003992Y008448D01*
X003998Y008524D01*
X004000Y008600D01*
X004000Y017100D01*
X004002Y017160D01*
X004007Y017221D01*
X004016Y017280D01*
X004029Y017339D01*
X004045Y017398D01*
X004065Y017455D01*
X004088Y017510D01*
X004115Y017565D01*
X004144Y017617D01*
X004177Y017668D01*
X004213Y017717D01*
X004251Y017763D01*
X004293Y017807D01*
X004337Y017849D01*
X004383Y017887D01*
X004432Y017923D01*
X004483Y017956D01*
X004535Y017985D01*
X004590Y018012D01*
X004645Y018035D01*
X004702Y018055D01*
X004761Y018071D01*
X004820Y018084D01*
X004879Y018093D01*
X004940Y018098D01*
X005000Y018100D01*
X020000Y018100D01*
X020060Y018098D01*
X020121Y018093D01*
X020180Y018084D01*
X020239Y018071D01*
X020298Y018055D01*
X020355Y018035D01*
X020410Y018012D01*
X020465Y017985D01*
X020517Y017956D01*
X020568Y017923D01*
X020617Y017887D01*
X020663Y017849D01*
X020707Y017807D01*
X020749Y017763D01*
X020787Y017717D01*
X020823Y017668D01*
X020856Y017617D01*
X020885Y017565D01*
X020912Y017510D01*
X020935Y017455D01*
X020955Y017398D01*
X020971Y017339D01*
X020984Y017280D01*
X020993Y017221D01*
X020998Y017160D01*
X021000Y017100D01*
X021000Y008100D01*
X021015Y008033D01*
X021034Y007966D01*
X021057Y007901D01*
X021083Y007837D01*
X021112Y007775D01*
X021145Y007714D01*
X021181Y007655D01*
X021220Y007598D01*
X021263Y007543D01*
X021308Y007491D01*
X021356Y007441D01*
X021406Y007394D01*
X021459Y007350D01*
X021514Y007309D01*
X021572Y007270D01*
X021631Y007235D01*
X021692Y007203D01*
X021755Y007175D01*
X021820Y007150D01*
X021885Y007128D01*
X021952Y007110D01*
X022020Y007096D01*
X022088Y007085D01*
X022156Y007078D01*
X022225Y007075D01*
X022294Y007076D01*
X022363Y007080D01*
X022432Y007088D01*
X022500Y007100D01*
X024000Y007100D01*
X024060Y007098D01*
X024121Y007093D01*
X024180Y007084D01*
X024239Y007071D01*
X024298Y007055D01*
X024355Y007035D01*
X024410Y007012D01*
X024465Y006985D01*
X024517Y006956D01*
X024568Y006923D01*
X024617Y006887D01*
X024663Y006849D01*
X024707Y006807D01*
X024749Y006763D01*
X024787Y006717D01*
X024823Y006668D01*
X024856Y006617D01*
X024885Y006565D01*
X024912Y006510D01*
X024935Y006455D01*
X024955Y006398D01*
X024971Y006339D01*
X024984Y006280D01*
X024993Y006221D01*
X024998Y006160D01*
X025000Y006100D01*
X025000Y000100D01*
X000500Y000100D01*
X008685Y008600D02*
X008687Y008635D01*
X008693Y008670D01*
X008703Y008704D01*
X008716Y008737D01*
X008733Y008768D01*
X008754Y008796D01*
X008777Y008823D01*
X008804Y008846D01*
X008832Y008867D01*
X008863Y008884D01*
X008896Y008897D01*
X008930Y008907D01*
X008965Y008913D01*
X009000Y008915D01*
X009035Y008913D01*
X009070Y008907D01*
X009104Y008897D01*
X009137Y008884D01*
X009168Y008867D01*
X009196Y008846D01*
X009223Y008823D01*
X009246Y008796D01*
X009267Y008768D01*
X009284Y008737D01*
X009297Y008704D01*
X009307Y008670D01*
X009313Y008635D01*
X009315Y008600D01*
X009313Y008565D01*
X009307Y008530D01*
X009297Y008496D01*
X009284Y008463D01*
X009267Y008432D01*
X009246Y008404D01*
X009223Y008377D01*
X009196Y008354D01*
X009168Y008333D01*
X009137Y008316D01*
X009104Y008303D01*
X009070Y008293D01*
X009035Y008287D01*
X009000Y008285D01*
X008965Y008287D01*
X008930Y008293D01*
X008896Y008303D01*
X008863Y008316D01*
X008832Y008333D01*
X008804Y008354D01*
X008777Y008377D01*
X008754Y008404D01*
X008733Y008432D01*
X008716Y008463D01*
X008703Y008496D01*
X008693Y008530D01*
X008687Y008565D01*
X008685Y008600D01*
X008685Y009600D02*
X008687Y009635D01*
X008693Y009670D01*
X008703Y009704D01*
X008716Y009737D01*
X008733Y009768D01*
X008754Y009796D01*
X008777Y009823D01*
X008804Y009846D01*
X008832Y009867D01*
X008863Y009884D01*
X008896Y009897D01*
X008930Y009907D01*
X008965Y009913D01*
X009000Y009915D01*
X009035Y009913D01*
X009070Y009907D01*
X009104Y009897D01*
X009137Y009884D01*
X009168Y009867D01*
X009196Y009846D01*
X009223Y009823D01*
X009246Y009796D01*
X009267Y009768D01*
X009284Y009737D01*
X009297Y009704D01*
X009307Y009670D01*
X009313Y009635D01*
X009315Y009600D01*
X009313Y009565D01*
X009307Y009530D01*
X009297Y009496D01*
X009284Y009463D01*
X009267Y009432D01*
X009246Y009404D01*
X009223Y009377D01*
X009196Y009354D01*
X009168Y009333D01*
X009137Y009316D01*
X009104Y009303D01*
X009070Y009293D01*
X009035Y009287D01*
X009000Y009285D01*
X008965Y009287D01*
X008930Y009293D01*
X008896Y009303D01*
X008863Y009316D01*
X008832Y009333D01*
X008804Y009354D01*
X008777Y009377D01*
X008754Y009404D01*
X008733Y009432D01*
X008716Y009463D01*
X008703Y009496D01*
X008693Y009530D01*
X008687Y009565D01*
X008685Y009600D01*
X009685Y009600D02*
X009687Y009635D01*
X009693Y009670D01*
X009703Y009704D01*
X009716Y009737D01*
X009733Y009768D01*
X009754Y009796D01*
X009777Y009823D01*
X009804Y009846D01*
X009832Y009867D01*
X009863Y009884D01*
X009896Y009897D01*
X009930Y009907D01*
X009965Y009913D01*
X010000Y009915D01*
X010035Y009913D01*
X010070Y009907D01*
X010104Y009897D01*
X010137Y009884D01*
X010168Y009867D01*
X010196Y009846D01*
X010223Y009823D01*
X010246Y009796D01*
X010267Y009768D01*
X010284Y009737D01*
X010297Y009704D01*
X010307Y009670D01*
X010313Y009635D01*
X010315Y009600D01*
X010313Y009565D01*
X010307Y009530D01*
X010297Y009496D01*
X010284Y009463D01*
X010267Y009432D01*
X010246Y009404D01*
X010223Y009377D01*
X010196Y009354D01*
X010168Y009333D01*
X010137Y009316D01*
X010104Y009303D01*
X010070Y009293D01*
X010035Y009287D01*
X010000Y009285D01*
X009965Y009287D01*
X009930Y009293D01*
X009896Y009303D01*
X009863Y009316D01*
X009832Y009333D01*
X009804Y009354D01*
X009777Y009377D01*
X009754Y009404D01*
X009733Y009432D01*
X009716Y009463D01*
X009703Y009496D01*
X009693Y009530D01*
X009687Y009565D01*
X009685Y009600D01*
X009685Y008600D02*
X009687Y008635D01*
X009693Y008670D01*
X009703Y008704D01*
X009716Y008737D01*
X009733Y008768D01*
X009754Y008796D01*
X009777Y008823D01*
X009804Y008846D01*
X009832Y008867D01*
X009863Y008884D01*
X009896Y008897D01*
X009930Y008907D01*
X009965Y008913D01*
X010000Y008915D01*
X010035Y008913D01*
X010070Y008907D01*
X010104Y008897D01*
X010137Y008884D01*
X010168Y008867D01*
X010196Y008846D01*
X010223Y008823D01*
X010246Y008796D01*
X010267Y008768D01*
X010284Y008737D01*
X010297Y008704D01*
X010307Y008670D01*
X010313Y008635D01*
X010315Y008600D01*
X010313Y008565D01*
X010307Y008530D01*
X010297Y008496D01*
X010284Y008463D01*
X010267Y008432D01*
X010246Y008404D01*
X010223Y008377D01*
X010196Y008354D01*
X010168Y008333D01*
X010137Y008316D01*
X010104Y008303D01*
X010070Y008293D01*
X010035Y008287D01*
X010000Y008285D01*
X009965Y008287D01*
X009930Y008293D01*
X009896Y008303D01*
X009863Y008316D01*
X009832Y008333D01*
X009804Y008354D01*
X009777Y008377D01*
X009754Y008404D01*
X009733Y008432D01*
X009716Y008463D01*
X009703Y008496D01*
X009693Y008530D01*
X009687Y008565D01*
X009685Y008600D01*
X010685Y008600D02*
X010687Y008635D01*
X010693Y008670D01*
X010703Y008704D01*
X010716Y008737D01*
X010733Y008768D01*
X010754Y008796D01*
X010777Y008823D01*
X010804Y008846D01*
X010832Y008867D01*
X010863Y008884D01*
X010896Y008897D01*
X010930Y008907D01*
X010965Y008913D01*
X011000Y008915D01*
X011035Y008913D01*
X011070Y008907D01*
X011104Y008897D01*
X011137Y008884D01*
X011168Y008867D01*
X011196Y008846D01*
X011223Y008823D01*
X011246Y008796D01*
X011267Y008768D01*
X011284Y008737D01*
X011297Y008704D01*
X011307Y008670D01*
X011313Y008635D01*
X011315Y008600D01*
X011313Y008565D01*
X011307Y008530D01*
X011297Y008496D01*
X011284Y008463D01*
X011267Y008432D01*
X011246Y008404D01*
X011223Y008377D01*
X011196Y008354D01*
X011168Y008333D01*
X011137Y008316D01*
X011104Y008303D01*
X011070Y008293D01*
X011035Y008287D01*
X011000Y008285D01*
X010965Y008287D01*
X010930Y008293D01*
X010896Y008303D01*
X010863Y008316D01*
X010832Y008333D01*
X010804Y008354D01*
X010777Y008377D01*
X010754Y008404D01*
X010733Y008432D01*
X010716Y008463D01*
X010703Y008496D01*
X010693Y008530D01*
X010687Y008565D01*
X010685Y008600D01*
X010685Y009600D02*
X010687Y009635D01*
X010693Y009670D01*
X010703Y009704D01*
X010716Y009737D01*
X010733Y009768D01*
X010754Y009796D01*
X010777Y009823D01*
X010804Y009846D01*
X010832Y009867D01*
X010863Y009884D01*
X010896Y009897D01*
X010930Y009907D01*
X010965Y009913D01*
X011000Y009915D01*
X011035Y009913D01*
X011070Y009907D01*
X011104Y009897D01*
X011137Y009884D01*
X011168Y009867D01*
X011196Y009846D01*
X011223Y009823D01*
X011246Y009796D01*
X011267Y009768D01*
X011284Y009737D01*
X011297Y009704D01*
X011307Y009670D01*
X011313Y009635D01*
X011315Y009600D01*
X011313Y009565D01*
X011307Y009530D01*
X011297Y009496D01*
X011284Y009463D01*
X011267Y009432D01*
X011246Y009404D01*
X011223Y009377D01*
X011196Y009354D01*
X011168Y009333D01*
X011137Y009316D01*
X011104Y009303D01*
X011070Y009293D01*
X011035Y009287D01*
X011000Y009285D01*
X010965Y009287D01*
X010930Y009293D01*
X010896Y009303D01*
X010863Y009316D01*
X010832Y009333D01*
X010804Y009354D01*
X010777Y009377D01*
X010754Y009404D01*
X010733Y009432D01*
X010716Y009463D01*
X010703Y009496D01*
X010693Y009530D01*
X010687Y009565D01*
X010685Y009600D01*
X010685Y010600D02*
X010687Y010635D01*
X010693Y010670D01*
X010703Y010704D01*
X010716Y010737D01*
X010733Y010768D01*
X010754Y010796D01*
X010777Y010823D01*
X010804Y010846D01*
X010832Y010867D01*
X010863Y010884D01*
X010896Y010897D01*
X010930Y010907D01*
X010965Y010913D01*
X011000Y010915D01*
X011035Y010913D01*
X011070Y010907D01*
X011104Y010897D01*
X011137Y010884D01*
X011168Y010867D01*
X011196Y010846D01*
X011223Y010823D01*
X011246Y010796D01*
X011267Y010768D01*
X011284Y010737D01*
X011297Y010704D01*
X011307Y010670D01*
X011313Y010635D01*
X011315Y010600D01*
X011313Y010565D01*
X011307Y010530D01*
X011297Y010496D01*
X011284Y010463D01*
X011267Y010432D01*
X011246Y010404D01*
X011223Y010377D01*
X011196Y010354D01*
X011168Y010333D01*
X011137Y010316D01*
X011104Y010303D01*
X011070Y010293D01*
X011035Y010287D01*
X011000Y010285D01*
X010965Y010287D01*
X010930Y010293D01*
X010896Y010303D01*
X010863Y010316D01*
X010832Y010333D01*
X010804Y010354D01*
X010777Y010377D01*
X010754Y010404D01*
X010733Y010432D01*
X010716Y010463D01*
X010703Y010496D01*
X010693Y010530D01*
X010687Y010565D01*
X010685Y010600D01*
X009685Y010600D02*
X009687Y010635D01*
X009693Y010670D01*
X009703Y010704D01*
X009716Y010737D01*
X009733Y010768D01*
X009754Y010796D01*
X009777Y010823D01*
X009804Y010846D01*
X009832Y010867D01*
X009863Y010884D01*
X009896Y010897D01*
X009930Y010907D01*
X009965Y010913D01*
X010000Y010915D01*
X010035Y010913D01*
X010070Y010907D01*
X010104Y010897D01*
X010137Y010884D01*
X010168Y010867D01*
X010196Y010846D01*
X010223Y010823D01*
X010246Y010796D01*
X010267Y010768D01*
X010284Y010737D01*
X010297Y010704D01*
X010307Y010670D01*
X010313Y010635D01*
X010315Y010600D01*
X010313Y010565D01*
X010307Y010530D01*
X010297Y010496D01*
X010284Y010463D01*
X010267Y010432D01*
X010246Y010404D01*
X010223Y010377D01*
X010196Y010354D01*
X010168Y010333D01*
X010137Y010316D01*
X010104Y010303D01*
X010070Y010293D01*
X010035Y010287D01*
X010000Y010285D01*
X009965Y010287D01*
X009930Y010293D01*
X009896Y010303D01*
X009863Y010316D01*
X009832Y010333D01*
X009804Y010354D01*
X009777Y010377D01*
X009754Y010404D01*
X009733Y010432D01*
X009716Y010463D01*
X009703Y010496D01*
X009693Y010530D01*
X009687Y010565D01*
X009685Y010600D01*
X008685Y010600D02*
X008687Y010635D01*
X008693Y010670D01*
X008703Y010704D01*
X008716Y010737D01*
X008733Y010768D01*
X008754Y010796D01*
X008777Y010823D01*
X008804Y010846D01*
X008832Y010867D01*
X008863Y010884D01*
X008896Y010897D01*
X008930Y010907D01*
X008965Y010913D01*
X009000Y010915D01*
X009035Y010913D01*
X009070Y010907D01*
X009104Y010897D01*
X009137Y010884D01*
X009168Y010867D01*
X009196Y010846D01*
X009223Y010823D01*
X009246Y010796D01*
X009267Y010768D01*
X009284Y010737D01*
X009297Y010704D01*
X009307Y010670D01*
X009313Y010635D01*
X009315Y010600D01*
X009313Y010565D01*
X009307Y010530D01*
X009297Y010496D01*
X009284Y010463D01*
X009267Y010432D01*
X009246Y010404D01*
X009223Y010377D01*
X009196Y010354D01*
X009168Y010333D01*
X009137Y010316D01*
X009104Y010303D01*
X009070Y010293D01*
X009035Y010287D01*
X009000Y010285D01*
X008965Y010287D01*
X008930Y010293D01*
X008896Y010303D01*
X008863Y010316D01*
X008832Y010333D01*
X008804Y010354D01*
X008777Y010377D01*
X008754Y010404D01*
X008733Y010432D01*
X008716Y010463D01*
X008703Y010496D01*
X008693Y010530D01*
X008687Y010565D01*
X008685Y010600D01*
X008685Y011600D02*
X008687Y011635D01*
X008693Y011670D01*
X008703Y011704D01*
X008716Y011737D01*
X008733Y011768D01*
X008754Y011796D01*
X008777Y011823D01*
X008804Y011846D01*
X008832Y011867D01*
X008863Y011884D01*
X008896Y011897D01*
X008930Y011907D01*
X008965Y011913D01*
X009000Y011915D01*
X009035Y011913D01*
X009070Y011907D01*
X009104Y011897D01*
X009137Y011884D01*
X009168Y011867D01*
X009196Y011846D01*
X009223Y011823D01*
X009246Y011796D01*
X009267Y011768D01*
X009284Y011737D01*
X009297Y011704D01*
X009307Y011670D01*
X009313Y011635D01*
X009315Y011600D01*
X009313Y011565D01*
X009307Y011530D01*
X009297Y011496D01*
X009284Y011463D01*
X009267Y011432D01*
X009246Y011404D01*
X009223Y011377D01*
X009196Y011354D01*
X009168Y011333D01*
X009137Y011316D01*
X009104Y011303D01*
X009070Y011293D01*
X009035Y011287D01*
X009000Y011285D01*
X008965Y011287D01*
X008930Y011293D01*
X008896Y011303D01*
X008863Y011316D01*
X008832Y011333D01*
X008804Y011354D01*
X008777Y011377D01*
X008754Y011404D01*
X008733Y011432D01*
X008716Y011463D01*
X008703Y011496D01*
X008693Y011530D01*
X008687Y011565D01*
X008685Y011600D01*
X009685Y011600D02*
X009687Y011635D01*
X009693Y011670D01*
X009703Y011704D01*
X009716Y011737D01*
X009733Y011768D01*
X009754Y011796D01*
X009777Y011823D01*
X009804Y011846D01*
X009832Y011867D01*
X009863Y011884D01*
X009896Y011897D01*
X009930Y011907D01*
X009965Y011913D01*
X010000Y011915D01*
X010035Y011913D01*
X010070Y011907D01*
X010104Y011897D01*
X010137Y011884D01*
X010168Y011867D01*
X010196Y011846D01*
X010223Y011823D01*
X010246Y011796D01*
X010267Y011768D01*
X010284Y011737D01*
X010297Y011704D01*
X010307Y011670D01*
X010313Y011635D01*
X010315Y011600D01*
X010313Y011565D01*
X010307Y011530D01*
X010297Y011496D01*
X010284Y011463D01*
X010267Y011432D01*
X010246Y011404D01*
X010223Y011377D01*
X010196Y011354D01*
X010168Y011333D01*
X010137Y011316D01*
X010104Y011303D01*
X010070Y011293D01*
X010035Y011287D01*
X010000Y011285D01*
X009965Y011287D01*
X009930Y011293D01*
X009896Y011303D01*
X009863Y011316D01*
X009832Y011333D01*
X009804Y011354D01*
X009777Y011377D01*
X009754Y011404D01*
X009733Y011432D01*
X009716Y011463D01*
X009703Y011496D01*
X009693Y011530D01*
X009687Y011565D01*
X009685Y011600D01*
X010685Y011600D02*
X010687Y011635D01*
X010693Y011670D01*
X010703Y011704D01*
X010716Y011737D01*
X010733Y011768D01*
X010754Y011796D01*
X010777Y011823D01*
X010804Y011846D01*
X010832Y011867D01*
X010863Y011884D01*
X010896Y011897D01*
X010930Y011907D01*
X010965Y011913D01*
X011000Y011915D01*
X011035Y011913D01*
X011070Y011907D01*
X011104Y011897D01*
X011137Y011884D01*
X011168Y011867D01*
X011196Y011846D01*
X011223Y011823D01*
X011246Y011796D01*
X011267Y011768D01*
X011284Y011737D01*
X011297Y011704D01*
X011307Y011670D01*
X011313Y011635D01*
X011315Y011600D01*
X011313Y011565D01*
X011307Y011530D01*
X011297Y011496D01*
X011284Y011463D01*
X011267Y011432D01*
X011246Y011404D01*
X011223Y011377D01*
X011196Y011354D01*
X011168Y011333D01*
X011137Y011316D01*
X011104Y011303D01*
X011070Y011293D01*
X011035Y011287D01*
X011000Y011285D01*
X010965Y011287D01*
X010930Y011293D01*
X010896Y011303D01*
X010863Y011316D01*
X010832Y011333D01*
X010804Y011354D01*
X010777Y011377D01*
X010754Y011404D01*
X010733Y011432D01*
X010716Y011463D01*
X010703Y011496D01*
X010693Y011530D01*
X010687Y011565D01*
X010685Y011600D01*
X010685Y012600D02*
X010687Y012635D01*
X010693Y012670D01*
X010703Y012704D01*
X010716Y012737D01*
X010733Y012768D01*
X010754Y012796D01*
X010777Y012823D01*
X010804Y012846D01*
X010832Y012867D01*
X010863Y012884D01*
X010896Y012897D01*
X010930Y012907D01*
X010965Y012913D01*
X011000Y012915D01*
X011035Y012913D01*
X011070Y012907D01*
X011104Y012897D01*
X011137Y012884D01*
X011168Y012867D01*
X011196Y012846D01*
X011223Y012823D01*
X011246Y012796D01*
X011267Y012768D01*
X011284Y012737D01*
X011297Y012704D01*
X011307Y012670D01*
X011313Y012635D01*
X011315Y012600D01*
X011313Y012565D01*
X011307Y012530D01*
X011297Y012496D01*
X011284Y012463D01*
X011267Y012432D01*
X011246Y012404D01*
X011223Y012377D01*
X011196Y012354D01*
X011168Y012333D01*
X011137Y012316D01*
X011104Y012303D01*
X011070Y012293D01*
X011035Y012287D01*
X011000Y012285D01*
X010965Y012287D01*
X010930Y012293D01*
X010896Y012303D01*
X010863Y012316D01*
X010832Y012333D01*
X010804Y012354D01*
X010777Y012377D01*
X010754Y012404D01*
X010733Y012432D01*
X010716Y012463D01*
X010703Y012496D01*
X010693Y012530D01*
X010687Y012565D01*
X010685Y012600D01*
X009685Y012600D02*
X009687Y012635D01*
X009693Y012670D01*
X009703Y012704D01*
X009716Y012737D01*
X009733Y012768D01*
X009754Y012796D01*
X009777Y012823D01*
X009804Y012846D01*
X009832Y012867D01*
X009863Y012884D01*
X009896Y012897D01*
X009930Y012907D01*
X009965Y012913D01*
X010000Y012915D01*
X010035Y012913D01*
X010070Y012907D01*
X010104Y012897D01*
X010137Y012884D01*
X010168Y012867D01*
X010196Y012846D01*
X010223Y012823D01*
X010246Y012796D01*
X010267Y012768D01*
X010284Y012737D01*
X010297Y012704D01*
X010307Y012670D01*
X010313Y012635D01*
X010315Y012600D01*
X010313Y012565D01*
X010307Y012530D01*
X010297Y012496D01*
X010284Y012463D01*
X010267Y012432D01*
X010246Y012404D01*
X010223Y012377D01*
X010196Y012354D01*
X010168Y012333D01*
X010137Y012316D01*
X010104Y012303D01*
X010070Y012293D01*
X010035Y012287D01*
X010000Y012285D01*
X009965Y012287D01*
X009930Y012293D01*
X009896Y012303D01*
X009863Y012316D01*
X009832Y012333D01*
X009804Y012354D01*
X009777Y012377D01*
X009754Y012404D01*
X009733Y012432D01*
X009716Y012463D01*
X009703Y012496D01*
X009693Y012530D01*
X009687Y012565D01*
X009685Y012600D01*
X008685Y012600D02*
X008687Y012635D01*
X008693Y012670D01*
X008703Y012704D01*
X008716Y012737D01*
X008733Y012768D01*
X008754Y012796D01*
X008777Y012823D01*
X008804Y012846D01*
X008832Y012867D01*
X008863Y012884D01*
X008896Y012897D01*
X008930Y012907D01*
X008965Y012913D01*
X009000Y012915D01*
X009035Y012913D01*
X009070Y012907D01*
X009104Y012897D01*
X009137Y012884D01*
X009168Y012867D01*
X009196Y012846D01*
X009223Y012823D01*
X009246Y012796D01*
X009267Y012768D01*
X009284Y012737D01*
X009297Y012704D01*
X009307Y012670D01*
X009313Y012635D01*
X009315Y012600D01*
X009313Y012565D01*
X009307Y012530D01*
X009297Y012496D01*
X009284Y012463D01*
X009267Y012432D01*
X009246Y012404D01*
X009223Y012377D01*
X009196Y012354D01*
X009168Y012333D01*
X009137Y012316D01*
X009104Y012303D01*
X009070Y012293D01*
X009035Y012287D01*
X009000Y012285D01*
X008965Y012287D01*
X008930Y012293D01*
X008896Y012303D01*
X008863Y012316D01*
X008832Y012333D01*
X008804Y012354D01*
X008777Y012377D01*
X008754Y012404D01*
X008733Y012432D01*
X008716Y012463D01*
X008703Y012496D01*
X008693Y012530D01*
X008687Y012565D01*
X008685Y012600D01*
X008685Y013600D02*
X008687Y013635D01*
X008693Y013670D01*
X008703Y013704D01*
X008716Y013737D01*
X008733Y013768D01*
X008754Y013796D01*
X008777Y013823D01*
X008804Y013846D01*
X008832Y013867D01*
X008863Y013884D01*
X008896Y013897D01*
X008930Y013907D01*
X008965Y013913D01*
X009000Y013915D01*
X009035Y013913D01*
X009070Y013907D01*
X009104Y013897D01*
X009137Y013884D01*
X009168Y013867D01*
X009196Y013846D01*
X009223Y013823D01*
X009246Y013796D01*
X009267Y013768D01*
X009284Y013737D01*
X009297Y013704D01*
X009307Y013670D01*
X009313Y013635D01*
X009315Y013600D01*
X009313Y013565D01*
X009307Y013530D01*
X009297Y013496D01*
X009284Y013463D01*
X009267Y013432D01*
X009246Y013404D01*
X009223Y013377D01*
X009196Y013354D01*
X009168Y013333D01*
X009137Y013316D01*
X009104Y013303D01*
X009070Y013293D01*
X009035Y013287D01*
X009000Y013285D01*
X008965Y013287D01*
X008930Y013293D01*
X008896Y013303D01*
X008863Y013316D01*
X008832Y013333D01*
X008804Y013354D01*
X008777Y013377D01*
X008754Y013404D01*
X008733Y013432D01*
X008716Y013463D01*
X008703Y013496D01*
X008693Y013530D01*
X008687Y013565D01*
X008685Y013600D01*
X009685Y013600D02*
X009687Y013635D01*
X009693Y013670D01*
X009703Y013704D01*
X009716Y013737D01*
X009733Y013768D01*
X009754Y013796D01*
X009777Y013823D01*
X009804Y013846D01*
X009832Y013867D01*
X009863Y013884D01*
X009896Y013897D01*
X009930Y013907D01*
X009965Y013913D01*
X010000Y013915D01*
X010035Y013913D01*
X010070Y013907D01*
X010104Y013897D01*
X010137Y013884D01*
X010168Y013867D01*
X010196Y013846D01*
X010223Y013823D01*
X010246Y013796D01*
X010267Y013768D01*
X010284Y013737D01*
X010297Y013704D01*
X010307Y013670D01*
X010313Y013635D01*
X010315Y013600D01*
X010313Y013565D01*
X010307Y013530D01*
X010297Y013496D01*
X010284Y013463D01*
X010267Y013432D01*
X010246Y013404D01*
X010223Y013377D01*
X010196Y013354D01*
X010168Y013333D01*
X010137Y013316D01*
X010104Y013303D01*
X010070Y013293D01*
X010035Y013287D01*
X010000Y013285D01*
X009965Y013287D01*
X009930Y013293D01*
X009896Y013303D01*
X009863Y013316D01*
X009832Y013333D01*
X009804Y013354D01*
X009777Y013377D01*
X009754Y013404D01*
X009733Y013432D01*
X009716Y013463D01*
X009703Y013496D01*
X009693Y013530D01*
X009687Y013565D01*
X009685Y013600D01*
X010685Y013600D02*
X010687Y013635D01*
X010693Y013670D01*
X010703Y013704D01*
X010716Y013737D01*
X010733Y013768D01*
X010754Y013796D01*
X010777Y013823D01*
X010804Y013846D01*
X010832Y013867D01*
X010863Y013884D01*
X010896Y013897D01*
X010930Y013907D01*
X010965Y013913D01*
X011000Y013915D01*
X011035Y013913D01*
X011070Y013907D01*
X011104Y013897D01*
X011137Y013884D01*
X011168Y013867D01*
X011196Y013846D01*
X011223Y013823D01*
X011246Y013796D01*
X011267Y013768D01*
X011284Y013737D01*
X011297Y013704D01*
X011307Y013670D01*
X011313Y013635D01*
X011315Y013600D01*
X011313Y013565D01*
X011307Y013530D01*
X011297Y013496D01*
X011284Y013463D01*
X011267Y013432D01*
X011246Y013404D01*
X011223Y013377D01*
X011196Y013354D01*
X011168Y013333D01*
X011137Y013316D01*
X011104Y013303D01*
X011070Y013293D01*
X011035Y013287D01*
X011000Y013285D01*
X010965Y013287D01*
X010930Y013293D01*
X010896Y013303D01*
X010863Y013316D01*
X010832Y013333D01*
X010804Y013354D01*
X010777Y013377D01*
X010754Y013404D01*
X010733Y013432D01*
X010716Y013463D01*
X010703Y013496D01*
X010693Y013530D01*
X010687Y013565D01*
X010685Y013600D01*
X010685Y014600D02*
X010687Y014635D01*
X010693Y014670D01*
X010703Y014704D01*
X010716Y014737D01*
X010733Y014768D01*
X010754Y014796D01*
X010777Y014823D01*
X010804Y014846D01*
X010832Y014867D01*
X010863Y014884D01*
X010896Y014897D01*
X010930Y014907D01*
X010965Y014913D01*
X011000Y014915D01*
X011035Y014913D01*
X011070Y014907D01*
X011104Y014897D01*
X011137Y014884D01*
X011168Y014867D01*
X011196Y014846D01*
X011223Y014823D01*
X011246Y014796D01*
X011267Y014768D01*
X011284Y014737D01*
X011297Y014704D01*
X011307Y014670D01*
X011313Y014635D01*
X011315Y014600D01*
X011313Y014565D01*
X011307Y014530D01*
X011297Y014496D01*
X011284Y014463D01*
X011267Y014432D01*
X011246Y014404D01*
X011223Y014377D01*
X011196Y014354D01*
X011168Y014333D01*
X011137Y014316D01*
X011104Y014303D01*
X011070Y014293D01*
X011035Y014287D01*
X011000Y014285D01*
X010965Y014287D01*
X010930Y014293D01*
X010896Y014303D01*
X010863Y014316D01*
X010832Y014333D01*
X010804Y014354D01*
X010777Y014377D01*
X010754Y014404D01*
X010733Y014432D01*
X010716Y014463D01*
X010703Y014496D01*
X010693Y014530D01*
X010687Y014565D01*
X010685Y014600D01*
X009685Y014600D02*
X009687Y014635D01*
X009693Y014670D01*
X009703Y014704D01*
X009716Y014737D01*
X009733Y014768D01*
X009754Y014796D01*
X009777Y014823D01*
X009804Y014846D01*
X009832Y014867D01*
X009863Y014884D01*
X009896Y014897D01*
X009930Y014907D01*
X009965Y014913D01*
X010000Y014915D01*
X010035Y014913D01*
X010070Y014907D01*
X010104Y014897D01*
X010137Y014884D01*
X010168Y014867D01*
X010196Y014846D01*
X010223Y014823D01*
X010246Y014796D01*
X010267Y014768D01*
X010284Y014737D01*
X010297Y014704D01*
X010307Y014670D01*
X010313Y014635D01*
X010315Y014600D01*
X010313Y014565D01*
X010307Y014530D01*
X010297Y014496D01*
X010284Y014463D01*
X010267Y014432D01*
X010246Y014404D01*
X010223Y014377D01*
X010196Y014354D01*
X010168Y014333D01*
X010137Y014316D01*
X010104Y014303D01*
X010070Y014293D01*
X010035Y014287D01*
X010000Y014285D01*
X009965Y014287D01*
X009930Y014293D01*
X009896Y014303D01*
X009863Y014316D01*
X009832Y014333D01*
X009804Y014354D01*
X009777Y014377D01*
X009754Y014404D01*
X009733Y014432D01*
X009716Y014463D01*
X009703Y014496D01*
X009693Y014530D01*
X009687Y014565D01*
X009685Y014600D01*
X008685Y014600D02*
X008687Y014635D01*
X008693Y014670D01*
X008703Y014704D01*
X008716Y014737D01*
X008733Y014768D01*
X008754Y014796D01*
X008777Y014823D01*
X008804Y014846D01*
X008832Y014867D01*
X008863Y014884D01*
X008896Y014897D01*
X008930Y014907D01*
X008965Y014913D01*
X009000Y014915D01*
X009035Y014913D01*
X009070Y014907D01*
X009104Y014897D01*
X009137Y014884D01*
X009168Y014867D01*
X009196Y014846D01*
X009223Y014823D01*
X009246Y014796D01*
X009267Y014768D01*
X009284Y014737D01*
X009297Y014704D01*
X009307Y014670D01*
X009313Y014635D01*
X009315Y014600D01*
X009313Y014565D01*
X009307Y014530D01*
X009297Y014496D01*
X009284Y014463D01*
X009267Y014432D01*
X009246Y014404D01*
X009223Y014377D01*
X009196Y014354D01*
X009168Y014333D01*
X009137Y014316D01*
X009104Y014303D01*
X009070Y014293D01*
X009035Y014287D01*
X009000Y014285D01*
X008965Y014287D01*
X008930Y014293D01*
X008896Y014303D01*
X008863Y014316D01*
X008832Y014333D01*
X008804Y014354D01*
X008777Y014377D01*
X008754Y014404D01*
X008733Y014432D01*
X008716Y014463D01*
X008703Y014496D01*
X008693Y014530D01*
X008687Y014565D01*
X008685Y014600D01*
X008685Y015600D02*
X008687Y015635D01*
X008693Y015670D01*
X008703Y015704D01*
X008716Y015737D01*
X008733Y015768D01*
X008754Y015796D01*
X008777Y015823D01*
X008804Y015846D01*
X008832Y015867D01*
X008863Y015884D01*
X008896Y015897D01*
X008930Y015907D01*
X008965Y015913D01*
X009000Y015915D01*
X009035Y015913D01*
X009070Y015907D01*
X009104Y015897D01*
X009137Y015884D01*
X009168Y015867D01*
X009196Y015846D01*
X009223Y015823D01*
X009246Y015796D01*
X009267Y015768D01*
X009284Y015737D01*
X009297Y015704D01*
X009307Y015670D01*
X009313Y015635D01*
X009315Y015600D01*
X009313Y015565D01*
X009307Y015530D01*
X009297Y015496D01*
X009284Y015463D01*
X009267Y015432D01*
X009246Y015404D01*
X009223Y015377D01*
X009196Y015354D01*
X009168Y015333D01*
X009137Y015316D01*
X009104Y015303D01*
X009070Y015293D01*
X009035Y015287D01*
X009000Y015285D01*
X008965Y015287D01*
X008930Y015293D01*
X008896Y015303D01*
X008863Y015316D01*
X008832Y015333D01*
X008804Y015354D01*
X008777Y015377D01*
X008754Y015404D01*
X008733Y015432D01*
X008716Y015463D01*
X008703Y015496D01*
X008693Y015530D01*
X008687Y015565D01*
X008685Y015600D01*
X009685Y015600D02*
X009687Y015635D01*
X009693Y015670D01*
X009703Y015704D01*
X009716Y015737D01*
X009733Y015768D01*
X009754Y015796D01*
X009777Y015823D01*
X009804Y015846D01*
X009832Y015867D01*
X009863Y015884D01*
X009896Y015897D01*
X009930Y015907D01*
X009965Y015913D01*
X010000Y015915D01*
X010035Y015913D01*
X010070Y015907D01*
X010104Y015897D01*
X010137Y015884D01*
X010168Y015867D01*
X010196Y015846D01*
X010223Y015823D01*
X010246Y015796D01*
X010267Y015768D01*
X010284Y015737D01*
X010297Y015704D01*
X010307Y015670D01*
X010313Y015635D01*
X010315Y015600D01*
X010313Y015565D01*
X010307Y015530D01*
X010297Y015496D01*
X010284Y015463D01*
X010267Y015432D01*
X010246Y015404D01*
X010223Y015377D01*
X010196Y015354D01*
X010168Y015333D01*
X010137Y015316D01*
X010104Y015303D01*
X010070Y015293D01*
X010035Y015287D01*
X010000Y015285D01*
X009965Y015287D01*
X009930Y015293D01*
X009896Y015303D01*
X009863Y015316D01*
X009832Y015333D01*
X009804Y015354D01*
X009777Y015377D01*
X009754Y015404D01*
X009733Y015432D01*
X009716Y015463D01*
X009703Y015496D01*
X009693Y015530D01*
X009687Y015565D01*
X009685Y015600D01*
X010685Y015600D02*
X010687Y015635D01*
X010693Y015670D01*
X010703Y015704D01*
X010716Y015737D01*
X010733Y015768D01*
X010754Y015796D01*
X010777Y015823D01*
X010804Y015846D01*
X010832Y015867D01*
X010863Y015884D01*
X010896Y015897D01*
X010930Y015907D01*
X010965Y015913D01*
X011000Y015915D01*
X011035Y015913D01*
X011070Y015907D01*
X011104Y015897D01*
X011137Y015884D01*
X011168Y015867D01*
X011196Y015846D01*
X011223Y015823D01*
X011246Y015796D01*
X011267Y015768D01*
X011284Y015737D01*
X011297Y015704D01*
X011307Y015670D01*
X011313Y015635D01*
X011315Y015600D01*
X011313Y015565D01*
X011307Y015530D01*
X011297Y015496D01*
X011284Y015463D01*
X011267Y015432D01*
X011246Y015404D01*
X011223Y015377D01*
X011196Y015354D01*
X011168Y015333D01*
X011137Y015316D01*
X011104Y015303D01*
X011070Y015293D01*
X011035Y015287D01*
X011000Y015285D01*
X010965Y015287D01*
X010930Y015293D01*
X010896Y015303D01*
X010863Y015316D01*
X010832Y015333D01*
X010804Y015354D01*
X010777Y015377D01*
X010754Y015404D01*
X010733Y015432D01*
X010716Y015463D01*
X010703Y015496D01*
X010693Y015530D01*
X010687Y015565D01*
X010685Y015600D01*
X013685Y015600D02*
X013687Y015635D01*
X013693Y015670D01*
X013703Y015704D01*
X013716Y015737D01*
X013733Y015768D01*
X013754Y015796D01*
X013777Y015823D01*
X013804Y015846D01*
X013832Y015867D01*
X013863Y015884D01*
X013896Y015897D01*
X013930Y015907D01*
X013965Y015913D01*
X014000Y015915D01*
X014035Y015913D01*
X014070Y015907D01*
X014104Y015897D01*
X014137Y015884D01*
X014168Y015867D01*
X014196Y015846D01*
X014223Y015823D01*
X014246Y015796D01*
X014267Y015768D01*
X014284Y015737D01*
X014297Y015704D01*
X014307Y015670D01*
X014313Y015635D01*
X014315Y015600D01*
X014313Y015565D01*
X014307Y015530D01*
X014297Y015496D01*
X014284Y015463D01*
X014267Y015432D01*
X014246Y015404D01*
X014223Y015377D01*
X014196Y015354D01*
X014168Y015333D01*
X014137Y015316D01*
X014104Y015303D01*
X014070Y015293D01*
X014035Y015287D01*
X014000Y015285D01*
X013965Y015287D01*
X013930Y015293D01*
X013896Y015303D01*
X013863Y015316D01*
X013832Y015333D01*
X013804Y015354D01*
X013777Y015377D01*
X013754Y015404D01*
X013733Y015432D01*
X013716Y015463D01*
X013703Y015496D01*
X013693Y015530D01*
X013687Y015565D01*
X013685Y015600D01*
X013685Y014600D02*
X013687Y014635D01*
X013693Y014670D01*
X013703Y014704D01*
X013716Y014737D01*
X013733Y014768D01*
X013754Y014796D01*
X013777Y014823D01*
X013804Y014846D01*
X013832Y014867D01*
X013863Y014884D01*
X013896Y014897D01*
X013930Y014907D01*
X013965Y014913D01*
X014000Y014915D01*
X014035Y014913D01*
X014070Y014907D01*
X014104Y014897D01*
X014137Y014884D01*
X014168Y014867D01*
X014196Y014846D01*
X014223Y014823D01*
X014246Y014796D01*
X014267Y014768D01*
X014284Y014737D01*
X014297Y014704D01*
X014307Y014670D01*
X014313Y014635D01*
X014315Y014600D01*
X014313Y014565D01*
X014307Y014530D01*
X014297Y014496D01*
X014284Y014463D01*
X014267Y014432D01*
X014246Y014404D01*
X014223Y014377D01*
X014196Y014354D01*
X014168Y014333D01*
X014137Y014316D01*
X014104Y014303D01*
X014070Y014293D01*
X014035Y014287D01*
X014000Y014285D01*
X013965Y014287D01*
X013930Y014293D01*
X013896Y014303D01*
X013863Y014316D01*
X013832Y014333D01*
X013804Y014354D01*
X013777Y014377D01*
X013754Y014404D01*
X013733Y014432D01*
X013716Y014463D01*
X013703Y014496D01*
X013693Y014530D01*
X013687Y014565D01*
X013685Y014600D01*
X014685Y014600D02*
X014687Y014635D01*
X014693Y014670D01*
X014703Y014704D01*
X014716Y014737D01*
X014733Y014768D01*
X014754Y014796D01*
X014777Y014823D01*
X014804Y014846D01*
X014832Y014867D01*
X014863Y014884D01*
X014896Y014897D01*
X014930Y014907D01*
X014965Y014913D01*
X015000Y014915D01*
X015035Y014913D01*
X015070Y014907D01*
X015104Y014897D01*
X015137Y014884D01*
X015168Y014867D01*
X015196Y014846D01*
X015223Y014823D01*
X015246Y014796D01*
X015267Y014768D01*
X015284Y014737D01*
X015297Y014704D01*
X015307Y014670D01*
X015313Y014635D01*
X015315Y014600D01*
X015313Y014565D01*
X015307Y014530D01*
X015297Y014496D01*
X015284Y014463D01*
X015267Y014432D01*
X015246Y014404D01*
X015223Y014377D01*
X015196Y014354D01*
X015168Y014333D01*
X015137Y014316D01*
X015104Y014303D01*
X015070Y014293D01*
X015035Y014287D01*
X015000Y014285D01*
X014965Y014287D01*
X014930Y014293D01*
X014896Y014303D01*
X014863Y014316D01*
X014832Y014333D01*
X014804Y014354D01*
X014777Y014377D01*
X014754Y014404D01*
X014733Y014432D01*
X014716Y014463D01*
X014703Y014496D01*
X014693Y014530D01*
X014687Y014565D01*
X014685Y014600D01*
X014685Y015600D02*
X014687Y015635D01*
X014693Y015670D01*
X014703Y015704D01*
X014716Y015737D01*
X014733Y015768D01*
X014754Y015796D01*
X014777Y015823D01*
X014804Y015846D01*
X014832Y015867D01*
X014863Y015884D01*
X014896Y015897D01*
X014930Y015907D01*
X014965Y015913D01*
X015000Y015915D01*
X015035Y015913D01*
X015070Y015907D01*
X015104Y015897D01*
X015137Y015884D01*
X015168Y015867D01*
X015196Y015846D01*
X015223Y015823D01*
X015246Y015796D01*
X015267Y015768D01*
X015284Y015737D01*
X015297Y015704D01*
X015307Y015670D01*
X015313Y015635D01*
X015315Y015600D01*
X015313Y015565D01*
X015307Y015530D01*
X015297Y015496D01*
X015284Y015463D01*
X015267Y015432D01*
X015246Y015404D01*
X015223Y015377D01*
X015196Y015354D01*
X015168Y015333D01*
X015137Y015316D01*
X015104Y015303D01*
X015070Y015293D01*
X015035Y015287D01*
X015000Y015285D01*
X014965Y015287D01*
X014930Y015293D01*
X014896Y015303D01*
X014863Y015316D01*
X014832Y015333D01*
X014804Y015354D01*
X014777Y015377D01*
X014754Y015404D01*
X014733Y015432D01*
X014716Y015463D01*
X014703Y015496D01*
X014693Y015530D01*
X014687Y015565D01*
X014685Y015600D01*
X015685Y015600D02*
X015687Y015635D01*
X015693Y015670D01*
X015703Y015704D01*
X015716Y015737D01*
X015733Y015768D01*
X015754Y015796D01*
X015777Y015823D01*
X015804Y015846D01*
X015832Y015867D01*
X015863Y015884D01*
X015896Y015897D01*
X015930Y015907D01*
X015965Y015913D01*
X016000Y015915D01*
X016035Y015913D01*
X016070Y015907D01*
X016104Y015897D01*
X016137Y015884D01*
X016168Y015867D01*
X016196Y015846D01*
X016223Y015823D01*
X016246Y015796D01*
X016267Y015768D01*
X016284Y015737D01*
X016297Y015704D01*
X016307Y015670D01*
X016313Y015635D01*
X016315Y015600D01*
X016313Y015565D01*
X016307Y015530D01*
X016297Y015496D01*
X016284Y015463D01*
X016267Y015432D01*
X016246Y015404D01*
X016223Y015377D01*
X016196Y015354D01*
X016168Y015333D01*
X016137Y015316D01*
X016104Y015303D01*
X016070Y015293D01*
X016035Y015287D01*
X016000Y015285D01*
X015965Y015287D01*
X015930Y015293D01*
X015896Y015303D01*
X015863Y015316D01*
X015832Y015333D01*
X015804Y015354D01*
X015777Y015377D01*
X015754Y015404D01*
X015733Y015432D01*
X015716Y015463D01*
X015703Y015496D01*
X015693Y015530D01*
X015687Y015565D01*
X015685Y015600D01*
X015685Y014600D02*
X015687Y014635D01*
X015693Y014670D01*
X015703Y014704D01*
X015716Y014737D01*
X015733Y014768D01*
X015754Y014796D01*
X015777Y014823D01*
X015804Y014846D01*
X015832Y014867D01*
X015863Y014884D01*
X015896Y014897D01*
X015930Y014907D01*
X015965Y014913D01*
X016000Y014915D01*
X016035Y014913D01*
X016070Y014907D01*
X016104Y014897D01*
X016137Y014884D01*
X016168Y014867D01*
X016196Y014846D01*
X016223Y014823D01*
X016246Y014796D01*
X016267Y014768D01*
X016284Y014737D01*
X016297Y014704D01*
X016307Y014670D01*
X016313Y014635D01*
X016315Y014600D01*
X016313Y014565D01*
X016307Y014530D01*
X016297Y014496D01*
X016284Y014463D01*
X016267Y014432D01*
X016246Y014404D01*
X016223Y014377D01*
X016196Y014354D01*
X016168Y014333D01*
X016137Y014316D01*
X016104Y014303D01*
X016070Y014293D01*
X016035Y014287D01*
X016000Y014285D01*
X015965Y014287D01*
X015930Y014293D01*
X015896Y014303D01*
X015863Y014316D01*
X015832Y014333D01*
X015804Y014354D01*
X015777Y014377D01*
X015754Y014404D01*
X015733Y014432D01*
X015716Y014463D01*
X015703Y014496D01*
X015693Y014530D01*
X015687Y014565D01*
X015685Y014600D01*
X015685Y013600D02*
X015687Y013635D01*
X015693Y013670D01*
X015703Y013704D01*
X015716Y013737D01*
X015733Y013768D01*
X015754Y013796D01*
X015777Y013823D01*
X015804Y013846D01*
X015832Y013867D01*
X015863Y013884D01*
X015896Y013897D01*
X015930Y013907D01*
X015965Y013913D01*
X016000Y013915D01*
X016035Y013913D01*
X016070Y013907D01*
X016104Y013897D01*
X016137Y013884D01*
X016168Y013867D01*
X016196Y013846D01*
X016223Y013823D01*
X016246Y013796D01*
X016267Y013768D01*
X016284Y013737D01*
X016297Y013704D01*
X016307Y013670D01*
X016313Y013635D01*
X016315Y013600D01*
X016313Y013565D01*
X016307Y013530D01*
X016297Y013496D01*
X016284Y013463D01*
X016267Y013432D01*
X016246Y013404D01*
X016223Y013377D01*
X016196Y013354D01*
X016168Y013333D01*
X016137Y013316D01*
X016104Y013303D01*
X016070Y013293D01*
X016035Y013287D01*
X016000Y013285D01*
X015965Y013287D01*
X015930Y013293D01*
X015896Y013303D01*
X015863Y013316D01*
X015832Y013333D01*
X015804Y013354D01*
X015777Y013377D01*
X015754Y013404D01*
X015733Y013432D01*
X015716Y013463D01*
X015703Y013496D01*
X015693Y013530D01*
X015687Y013565D01*
X015685Y013600D01*
X014685Y013600D02*
X014687Y013635D01*
X014693Y013670D01*
X014703Y013704D01*
X014716Y013737D01*
X014733Y013768D01*
X014754Y013796D01*
X014777Y013823D01*
X014804Y013846D01*
X014832Y013867D01*
X014863Y013884D01*
X014896Y013897D01*
X014930Y013907D01*
X014965Y013913D01*
X015000Y013915D01*
X015035Y013913D01*
X015070Y013907D01*
X015104Y013897D01*
X015137Y013884D01*
X015168Y013867D01*
X015196Y013846D01*
X015223Y013823D01*
X015246Y013796D01*
X015267Y013768D01*
X015284Y013737D01*
X015297Y013704D01*
X015307Y013670D01*
X015313Y013635D01*
X015315Y013600D01*
X015313Y013565D01*
X015307Y013530D01*
X015297Y013496D01*
X015284Y013463D01*
X015267Y013432D01*
X015246Y013404D01*
X015223Y013377D01*
X015196Y013354D01*
X015168Y013333D01*
X015137Y013316D01*
X015104Y013303D01*
X015070Y013293D01*
X015035Y013287D01*
X015000Y013285D01*
X014965Y013287D01*
X014930Y013293D01*
X014896Y013303D01*
X014863Y013316D01*
X014832Y013333D01*
X014804Y013354D01*
X014777Y013377D01*
X014754Y013404D01*
X014733Y013432D01*
X014716Y013463D01*
X014703Y013496D01*
X014693Y013530D01*
X014687Y013565D01*
X014685Y013600D01*
X013685Y013600D02*
X013687Y013635D01*
X013693Y013670D01*
X013703Y013704D01*
X013716Y013737D01*
X013733Y013768D01*
X013754Y013796D01*
X013777Y013823D01*
X013804Y013846D01*
X013832Y013867D01*
X013863Y013884D01*
X013896Y013897D01*
X013930Y013907D01*
X013965Y013913D01*
X014000Y013915D01*
X014035Y013913D01*
X014070Y013907D01*
X014104Y013897D01*
X014137Y013884D01*
X014168Y013867D01*
X014196Y013846D01*
X014223Y013823D01*
X014246Y013796D01*
X014267Y013768D01*
X014284Y013737D01*
X014297Y013704D01*
X014307Y013670D01*
X014313Y013635D01*
X014315Y013600D01*
X014313Y013565D01*
X014307Y013530D01*
X014297Y013496D01*
X014284Y013463D01*
X014267Y013432D01*
X014246Y013404D01*
X014223Y013377D01*
X014196Y013354D01*
X014168Y013333D01*
X014137Y013316D01*
X014104Y013303D01*
X014070Y013293D01*
X014035Y013287D01*
X014000Y013285D01*
X013965Y013287D01*
X013930Y013293D01*
X013896Y013303D01*
X013863Y013316D01*
X013832Y013333D01*
X013804Y013354D01*
X013777Y013377D01*
X013754Y013404D01*
X013733Y013432D01*
X013716Y013463D01*
X013703Y013496D01*
X013693Y013530D01*
X013687Y013565D01*
X013685Y013600D01*
X013685Y012600D02*
X013687Y012635D01*
X013693Y012670D01*
X013703Y012704D01*
X013716Y012737D01*
X013733Y012768D01*
X013754Y012796D01*
X013777Y012823D01*
X013804Y012846D01*
X013832Y012867D01*
X013863Y012884D01*
X013896Y012897D01*
X013930Y012907D01*
X013965Y012913D01*
X014000Y012915D01*
X014035Y012913D01*
X014070Y012907D01*
X014104Y012897D01*
X014137Y012884D01*
X014168Y012867D01*
X014196Y012846D01*
X014223Y012823D01*
X014246Y012796D01*
X014267Y012768D01*
X014284Y012737D01*
X014297Y012704D01*
X014307Y012670D01*
X014313Y012635D01*
X014315Y012600D01*
X014313Y012565D01*
X014307Y012530D01*
X014297Y012496D01*
X014284Y012463D01*
X014267Y012432D01*
X014246Y012404D01*
X014223Y012377D01*
X014196Y012354D01*
X014168Y012333D01*
X014137Y012316D01*
X014104Y012303D01*
X014070Y012293D01*
X014035Y012287D01*
X014000Y012285D01*
X013965Y012287D01*
X013930Y012293D01*
X013896Y012303D01*
X013863Y012316D01*
X013832Y012333D01*
X013804Y012354D01*
X013777Y012377D01*
X013754Y012404D01*
X013733Y012432D01*
X013716Y012463D01*
X013703Y012496D01*
X013693Y012530D01*
X013687Y012565D01*
X013685Y012600D01*
X014685Y012600D02*
X014687Y012635D01*
X014693Y012670D01*
X014703Y012704D01*
X014716Y012737D01*
X014733Y012768D01*
X014754Y012796D01*
X014777Y012823D01*
X014804Y012846D01*
X014832Y012867D01*
X014863Y012884D01*
X014896Y012897D01*
X014930Y012907D01*
X014965Y012913D01*
X015000Y012915D01*
X015035Y012913D01*
X015070Y012907D01*
X015104Y012897D01*
X015137Y012884D01*
X015168Y012867D01*
X015196Y012846D01*
X015223Y012823D01*
X015246Y012796D01*
X015267Y012768D01*
X015284Y012737D01*
X015297Y012704D01*
X015307Y012670D01*
X015313Y012635D01*
X015315Y012600D01*
X015313Y012565D01*
X015307Y012530D01*
X015297Y012496D01*
X015284Y012463D01*
X015267Y012432D01*
X015246Y012404D01*
X015223Y012377D01*
X015196Y012354D01*
X015168Y012333D01*
X015137Y012316D01*
X015104Y012303D01*
X015070Y012293D01*
X015035Y012287D01*
X015000Y012285D01*
X014965Y012287D01*
X014930Y012293D01*
X014896Y012303D01*
X014863Y012316D01*
X014832Y012333D01*
X014804Y012354D01*
X014777Y012377D01*
X014754Y012404D01*
X014733Y012432D01*
X014716Y012463D01*
X014703Y012496D01*
X014693Y012530D01*
X014687Y012565D01*
X014685Y012600D01*
X015685Y012600D02*
X015687Y012635D01*
X015693Y012670D01*
X015703Y012704D01*
X015716Y012737D01*
X015733Y012768D01*
X015754Y012796D01*
X015777Y012823D01*
X015804Y012846D01*
X015832Y012867D01*
X015863Y012884D01*
X015896Y012897D01*
X015930Y012907D01*
X015965Y012913D01*
X016000Y012915D01*
X016035Y012913D01*
X016070Y012907D01*
X016104Y012897D01*
X016137Y012884D01*
X016168Y012867D01*
X016196Y012846D01*
X016223Y012823D01*
X016246Y012796D01*
X016267Y012768D01*
X016284Y012737D01*
X016297Y012704D01*
X016307Y012670D01*
X016313Y012635D01*
X016315Y012600D01*
X016313Y012565D01*
X016307Y012530D01*
X016297Y012496D01*
X016284Y012463D01*
X016267Y012432D01*
X016246Y012404D01*
X016223Y012377D01*
X016196Y012354D01*
X016168Y012333D01*
X016137Y012316D01*
X016104Y012303D01*
X016070Y012293D01*
X016035Y012287D01*
X016000Y012285D01*
X015965Y012287D01*
X015930Y012293D01*
X015896Y012303D01*
X015863Y012316D01*
X015832Y012333D01*
X015804Y012354D01*
X015777Y012377D01*
X015754Y012404D01*
X015733Y012432D01*
X015716Y012463D01*
X015703Y012496D01*
X015693Y012530D01*
X015687Y012565D01*
X015685Y012600D01*
X015685Y011600D02*
X015687Y011635D01*
X015693Y011670D01*
X015703Y011704D01*
X015716Y011737D01*
X015733Y011768D01*
X015754Y011796D01*
X015777Y011823D01*
X015804Y011846D01*
X015832Y011867D01*
X015863Y011884D01*
X015896Y011897D01*
X015930Y011907D01*
X015965Y011913D01*
X016000Y011915D01*
X016035Y011913D01*
X016070Y011907D01*
X016104Y011897D01*
X016137Y011884D01*
X016168Y011867D01*
X016196Y011846D01*
X016223Y011823D01*
X016246Y011796D01*
X016267Y011768D01*
X016284Y011737D01*
X016297Y011704D01*
X016307Y011670D01*
X016313Y011635D01*
X016315Y011600D01*
X016313Y011565D01*
X016307Y011530D01*
X016297Y011496D01*
X016284Y011463D01*
X016267Y011432D01*
X016246Y011404D01*
X016223Y011377D01*
X016196Y011354D01*
X016168Y011333D01*
X016137Y011316D01*
X016104Y011303D01*
X016070Y011293D01*
X016035Y011287D01*
X016000Y011285D01*
X015965Y011287D01*
X015930Y011293D01*
X015896Y011303D01*
X015863Y011316D01*
X015832Y011333D01*
X015804Y011354D01*
X015777Y011377D01*
X015754Y011404D01*
X015733Y011432D01*
X015716Y011463D01*
X015703Y011496D01*
X015693Y011530D01*
X015687Y011565D01*
X015685Y011600D01*
X014685Y011600D02*
X014687Y011635D01*
X014693Y011670D01*
X014703Y011704D01*
X014716Y011737D01*
X014733Y011768D01*
X014754Y011796D01*
X014777Y011823D01*
X014804Y011846D01*
X014832Y011867D01*
X014863Y011884D01*
X014896Y011897D01*
X014930Y011907D01*
X014965Y011913D01*
X015000Y011915D01*
X015035Y011913D01*
X015070Y011907D01*
X015104Y011897D01*
X015137Y011884D01*
X015168Y011867D01*
X015196Y011846D01*
X015223Y011823D01*
X015246Y011796D01*
X015267Y011768D01*
X015284Y011737D01*
X015297Y011704D01*
X015307Y011670D01*
X015313Y011635D01*
X015315Y011600D01*
X015313Y011565D01*
X015307Y011530D01*
X015297Y011496D01*
X015284Y011463D01*
X015267Y011432D01*
X015246Y011404D01*
X015223Y011377D01*
X015196Y011354D01*
X015168Y011333D01*
X015137Y011316D01*
X015104Y011303D01*
X015070Y011293D01*
X015035Y011287D01*
X015000Y011285D01*
X014965Y011287D01*
X014930Y011293D01*
X014896Y011303D01*
X014863Y011316D01*
X014832Y011333D01*
X014804Y011354D01*
X014777Y011377D01*
X014754Y011404D01*
X014733Y011432D01*
X014716Y011463D01*
X014703Y011496D01*
X014693Y011530D01*
X014687Y011565D01*
X014685Y011600D01*
X013685Y011600D02*
X013687Y011635D01*
X013693Y011670D01*
X013703Y011704D01*
X013716Y011737D01*
X013733Y011768D01*
X013754Y011796D01*
X013777Y011823D01*
X013804Y011846D01*
X013832Y011867D01*
X013863Y011884D01*
X013896Y011897D01*
X013930Y011907D01*
X013965Y011913D01*
X014000Y011915D01*
X014035Y011913D01*
X014070Y011907D01*
X014104Y011897D01*
X014137Y011884D01*
X014168Y011867D01*
X014196Y011846D01*
X014223Y011823D01*
X014246Y011796D01*
X014267Y011768D01*
X014284Y011737D01*
X014297Y011704D01*
X014307Y011670D01*
X014313Y011635D01*
X014315Y011600D01*
X014313Y011565D01*
X014307Y011530D01*
X014297Y011496D01*
X014284Y011463D01*
X014267Y011432D01*
X014246Y011404D01*
X014223Y011377D01*
X014196Y011354D01*
X014168Y011333D01*
X014137Y011316D01*
X014104Y011303D01*
X014070Y011293D01*
X014035Y011287D01*
X014000Y011285D01*
X013965Y011287D01*
X013930Y011293D01*
X013896Y011303D01*
X013863Y011316D01*
X013832Y011333D01*
X013804Y011354D01*
X013777Y011377D01*
X013754Y011404D01*
X013733Y011432D01*
X013716Y011463D01*
X013703Y011496D01*
X013693Y011530D01*
X013687Y011565D01*
X013685Y011600D01*
X013685Y010600D02*
X013687Y010635D01*
X013693Y010670D01*
X013703Y010704D01*
X013716Y010737D01*
X013733Y010768D01*
X013754Y010796D01*
X013777Y010823D01*
X013804Y010846D01*
X013832Y010867D01*
X013863Y010884D01*
X013896Y010897D01*
X013930Y010907D01*
X013965Y010913D01*
X014000Y010915D01*
X014035Y010913D01*
X014070Y010907D01*
X014104Y010897D01*
X014137Y010884D01*
X014168Y010867D01*
X014196Y010846D01*
X014223Y010823D01*
X014246Y010796D01*
X014267Y010768D01*
X014284Y010737D01*
X014297Y010704D01*
X014307Y010670D01*
X014313Y010635D01*
X014315Y010600D01*
X014313Y010565D01*
X014307Y010530D01*
X014297Y010496D01*
X014284Y010463D01*
X014267Y010432D01*
X014246Y010404D01*
X014223Y010377D01*
X014196Y010354D01*
X014168Y010333D01*
X014137Y010316D01*
X014104Y010303D01*
X014070Y010293D01*
X014035Y010287D01*
X014000Y010285D01*
X013965Y010287D01*
X013930Y010293D01*
X013896Y010303D01*
X013863Y010316D01*
X013832Y010333D01*
X013804Y010354D01*
X013777Y010377D01*
X013754Y010404D01*
X013733Y010432D01*
X013716Y010463D01*
X013703Y010496D01*
X013693Y010530D01*
X013687Y010565D01*
X013685Y010600D01*
X014685Y010600D02*
X014687Y010635D01*
X014693Y010670D01*
X014703Y010704D01*
X014716Y010737D01*
X014733Y010768D01*
X014754Y010796D01*
X014777Y010823D01*
X014804Y010846D01*
X014832Y010867D01*
X014863Y010884D01*
X014896Y010897D01*
X014930Y010907D01*
X014965Y010913D01*
X015000Y010915D01*
X015035Y010913D01*
X015070Y010907D01*
X015104Y010897D01*
X015137Y010884D01*
X015168Y010867D01*
X015196Y010846D01*
X015223Y010823D01*
X015246Y010796D01*
X015267Y010768D01*
X015284Y010737D01*
X015297Y010704D01*
X015307Y010670D01*
X015313Y010635D01*
X015315Y010600D01*
X015313Y010565D01*
X015307Y010530D01*
X015297Y010496D01*
X015284Y010463D01*
X015267Y010432D01*
X015246Y010404D01*
X015223Y010377D01*
X015196Y010354D01*
X015168Y010333D01*
X015137Y010316D01*
X015104Y010303D01*
X015070Y010293D01*
X015035Y010287D01*
X015000Y010285D01*
X014965Y010287D01*
X014930Y010293D01*
X014896Y010303D01*
X014863Y010316D01*
X014832Y010333D01*
X014804Y010354D01*
X014777Y010377D01*
X014754Y010404D01*
X014733Y010432D01*
X014716Y010463D01*
X014703Y010496D01*
X014693Y010530D01*
X014687Y010565D01*
X014685Y010600D01*
X015685Y010600D02*
X015687Y010635D01*
X015693Y010670D01*
X015703Y010704D01*
X015716Y010737D01*
X015733Y010768D01*
X015754Y010796D01*
X015777Y010823D01*
X015804Y010846D01*
X015832Y010867D01*
X015863Y010884D01*
X015896Y010897D01*
X015930Y010907D01*
X015965Y010913D01*
X016000Y010915D01*
X016035Y010913D01*
X016070Y010907D01*
X016104Y010897D01*
X016137Y010884D01*
X016168Y010867D01*
X016196Y010846D01*
X016223Y010823D01*
X016246Y010796D01*
X016267Y010768D01*
X016284Y010737D01*
X016297Y010704D01*
X016307Y010670D01*
X016313Y010635D01*
X016315Y010600D01*
X016313Y010565D01*
X016307Y010530D01*
X016297Y010496D01*
X016284Y010463D01*
X016267Y010432D01*
X016246Y010404D01*
X016223Y010377D01*
X016196Y010354D01*
X016168Y010333D01*
X016137Y010316D01*
X016104Y010303D01*
X016070Y010293D01*
X016035Y010287D01*
X016000Y010285D01*
X015965Y010287D01*
X015930Y010293D01*
X015896Y010303D01*
X015863Y010316D01*
X015832Y010333D01*
X015804Y010354D01*
X015777Y010377D01*
X015754Y010404D01*
X015733Y010432D01*
X015716Y010463D01*
X015703Y010496D01*
X015693Y010530D01*
X015687Y010565D01*
X015685Y010600D01*
X015685Y009600D02*
X015687Y009635D01*
X015693Y009670D01*
X015703Y009704D01*
X015716Y009737D01*
X015733Y009768D01*
X015754Y009796D01*
X015777Y009823D01*
X015804Y009846D01*
X015832Y009867D01*
X015863Y009884D01*
X015896Y009897D01*
X015930Y009907D01*
X015965Y009913D01*
X016000Y009915D01*
X016035Y009913D01*
X016070Y009907D01*
X016104Y009897D01*
X016137Y009884D01*
X016168Y009867D01*
X016196Y009846D01*
X016223Y009823D01*
X016246Y009796D01*
X016267Y009768D01*
X016284Y009737D01*
X016297Y009704D01*
X016307Y009670D01*
X016313Y009635D01*
X016315Y009600D01*
X016313Y009565D01*
X016307Y009530D01*
X016297Y009496D01*
X016284Y009463D01*
X016267Y009432D01*
X016246Y009404D01*
X016223Y009377D01*
X016196Y009354D01*
X016168Y009333D01*
X016137Y009316D01*
X016104Y009303D01*
X016070Y009293D01*
X016035Y009287D01*
X016000Y009285D01*
X015965Y009287D01*
X015930Y009293D01*
X015896Y009303D01*
X015863Y009316D01*
X015832Y009333D01*
X015804Y009354D01*
X015777Y009377D01*
X015754Y009404D01*
X015733Y009432D01*
X015716Y009463D01*
X015703Y009496D01*
X015693Y009530D01*
X015687Y009565D01*
X015685Y009600D01*
X014685Y009600D02*
X014687Y009635D01*
X014693Y009670D01*
X014703Y009704D01*
X014716Y009737D01*
X014733Y009768D01*
X014754Y009796D01*
X014777Y009823D01*
X014804Y009846D01*
X014832Y009867D01*
X014863Y009884D01*
X014896Y009897D01*
X014930Y009907D01*
X014965Y009913D01*
X015000Y009915D01*
X015035Y009913D01*
X015070Y009907D01*
X015104Y009897D01*
X015137Y009884D01*
X015168Y009867D01*
X015196Y009846D01*
X015223Y009823D01*
X015246Y009796D01*
X015267Y009768D01*
X015284Y009737D01*
X015297Y009704D01*
X015307Y009670D01*
X015313Y009635D01*
X015315Y009600D01*
X015313Y009565D01*
X015307Y009530D01*
X015297Y009496D01*
X015284Y009463D01*
X015267Y009432D01*
X015246Y009404D01*
X015223Y009377D01*
X015196Y009354D01*
X015168Y009333D01*
X015137Y009316D01*
X015104Y009303D01*
X015070Y009293D01*
X015035Y009287D01*
X015000Y009285D01*
X014965Y009287D01*
X014930Y009293D01*
X014896Y009303D01*
X014863Y009316D01*
X014832Y009333D01*
X014804Y009354D01*
X014777Y009377D01*
X014754Y009404D01*
X014733Y009432D01*
X014716Y009463D01*
X014703Y009496D01*
X014693Y009530D01*
X014687Y009565D01*
X014685Y009600D01*
X013685Y009600D02*
X013687Y009635D01*
X013693Y009670D01*
X013703Y009704D01*
X013716Y009737D01*
X013733Y009768D01*
X013754Y009796D01*
X013777Y009823D01*
X013804Y009846D01*
X013832Y009867D01*
X013863Y009884D01*
X013896Y009897D01*
X013930Y009907D01*
X013965Y009913D01*
X014000Y009915D01*
X014035Y009913D01*
X014070Y009907D01*
X014104Y009897D01*
X014137Y009884D01*
X014168Y009867D01*
X014196Y009846D01*
X014223Y009823D01*
X014246Y009796D01*
X014267Y009768D01*
X014284Y009737D01*
X014297Y009704D01*
X014307Y009670D01*
X014313Y009635D01*
X014315Y009600D01*
X014313Y009565D01*
X014307Y009530D01*
X014297Y009496D01*
X014284Y009463D01*
X014267Y009432D01*
X014246Y009404D01*
X014223Y009377D01*
X014196Y009354D01*
X014168Y009333D01*
X014137Y009316D01*
X014104Y009303D01*
X014070Y009293D01*
X014035Y009287D01*
X014000Y009285D01*
X013965Y009287D01*
X013930Y009293D01*
X013896Y009303D01*
X013863Y009316D01*
X013832Y009333D01*
X013804Y009354D01*
X013777Y009377D01*
X013754Y009404D01*
X013733Y009432D01*
X013716Y009463D01*
X013703Y009496D01*
X013693Y009530D01*
X013687Y009565D01*
X013685Y009600D01*
X013685Y008600D02*
X013687Y008635D01*
X013693Y008670D01*
X013703Y008704D01*
X013716Y008737D01*
X013733Y008768D01*
X013754Y008796D01*
X013777Y008823D01*
X013804Y008846D01*
X013832Y008867D01*
X013863Y008884D01*
X013896Y008897D01*
X013930Y008907D01*
X013965Y008913D01*
X014000Y008915D01*
X014035Y008913D01*
X014070Y008907D01*
X014104Y008897D01*
X014137Y008884D01*
X014168Y008867D01*
X014196Y008846D01*
X014223Y008823D01*
X014246Y008796D01*
X014267Y008768D01*
X014284Y008737D01*
X014297Y008704D01*
X014307Y008670D01*
X014313Y008635D01*
X014315Y008600D01*
X014313Y008565D01*
X014307Y008530D01*
X014297Y008496D01*
X014284Y008463D01*
X014267Y008432D01*
X014246Y008404D01*
X014223Y008377D01*
X014196Y008354D01*
X014168Y008333D01*
X014137Y008316D01*
X014104Y008303D01*
X014070Y008293D01*
X014035Y008287D01*
X014000Y008285D01*
X013965Y008287D01*
X013930Y008293D01*
X013896Y008303D01*
X013863Y008316D01*
X013832Y008333D01*
X013804Y008354D01*
X013777Y008377D01*
X013754Y008404D01*
X013733Y008432D01*
X013716Y008463D01*
X013703Y008496D01*
X013693Y008530D01*
X013687Y008565D01*
X013685Y008600D01*
X014685Y008600D02*
X014687Y008635D01*
X014693Y008670D01*
X014703Y008704D01*
X014716Y008737D01*
X014733Y008768D01*
X014754Y008796D01*
X014777Y008823D01*
X014804Y008846D01*
X014832Y008867D01*
X014863Y008884D01*
X014896Y008897D01*
X014930Y008907D01*
X014965Y008913D01*
X015000Y008915D01*
X015035Y008913D01*
X015070Y008907D01*
X015104Y008897D01*
X015137Y008884D01*
X015168Y008867D01*
X015196Y008846D01*
X015223Y008823D01*
X015246Y008796D01*
X015267Y008768D01*
X015284Y008737D01*
X015297Y008704D01*
X015307Y008670D01*
X015313Y008635D01*
X015315Y008600D01*
X015313Y008565D01*
X015307Y008530D01*
X015297Y008496D01*
X015284Y008463D01*
X015267Y008432D01*
X015246Y008404D01*
X015223Y008377D01*
X015196Y008354D01*
X015168Y008333D01*
X015137Y008316D01*
X015104Y008303D01*
X015070Y008293D01*
X015035Y008287D01*
X015000Y008285D01*
X014965Y008287D01*
X014930Y008293D01*
X014896Y008303D01*
X014863Y008316D01*
X014832Y008333D01*
X014804Y008354D01*
X014777Y008377D01*
X014754Y008404D01*
X014733Y008432D01*
X014716Y008463D01*
X014703Y008496D01*
X014693Y008530D01*
X014687Y008565D01*
X014685Y008600D01*
X015685Y008600D02*
X015687Y008635D01*
X015693Y008670D01*
X015703Y008704D01*
X015716Y008737D01*
X015733Y008768D01*
X015754Y008796D01*
X015777Y008823D01*
X015804Y008846D01*
X015832Y008867D01*
X015863Y008884D01*
X015896Y008897D01*
X015930Y008907D01*
X015965Y008913D01*
X016000Y008915D01*
X016035Y008913D01*
X016070Y008907D01*
X016104Y008897D01*
X016137Y008884D01*
X016168Y008867D01*
X016196Y008846D01*
X016223Y008823D01*
X016246Y008796D01*
X016267Y008768D01*
X016284Y008737D01*
X016297Y008704D01*
X016307Y008670D01*
X016313Y008635D01*
X016315Y008600D01*
X016313Y008565D01*
X016307Y008530D01*
X016297Y008496D01*
X016284Y008463D01*
X016267Y008432D01*
X016246Y008404D01*
X016223Y008377D01*
X016196Y008354D01*
X016168Y008333D01*
X016137Y008316D01*
X016104Y008303D01*
X016070Y008293D01*
X016035Y008287D01*
X016000Y008285D01*
X015965Y008287D01*
X015930Y008293D01*
X015896Y008303D01*
X015863Y008316D01*
X015832Y008333D01*
X015804Y008354D01*
X015777Y008377D01*
X015754Y008404D01*
X015733Y008432D01*
X015716Y008463D01*
X015703Y008496D01*
X015693Y008530D01*
X015687Y008565D01*
X015685Y008600D01*
D11*
X016500Y007100D02*
X008000Y007100D01*
X002653Y004754D02*
X002653Y003179D01*
X003047Y002786D01*
X022929Y002786D01*
X022929Y004754D01*
X002653Y004754D01*
D12*
X002720Y002697D02*
X002817Y002697D01*
X002865Y002648D01*
X002865Y002600D01*
X002817Y002551D01*
X002720Y002551D01*
X002672Y002600D01*
X002672Y002648D01*
X002720Y002697D01*
X002720Y002551D02*
X002672Y002503D01*
X002672Y002455D01*
X002720Y002406D01*
X002817Y002406D01*
X002865Y002455D01*
X002865Y002503D01*
X002817Y002551D01*
X002571Y002697D02*
X002474Y002697D01*
X002522Y002697D02*
X002522Y002455D01*
X002474Y002406D01*
X002426Y002406D01*
X002377Y002455D01*
X005527Y002321D02*
X005527Y002074D01*
X005589Y002013D01*
X005712Y002013D01*
X005774Y002074D01*
X005774Y002198D01*
X005650Y002198D01*
X005527Y002321D02*
X005589Y002383D01*
X005712Y002383D01*
X005774Y002321D01*
X005895Y002383D02*
X005895Y002013D01*
X005895Y002136D02*
X006080Y002136D01*
X006142Y002198D01*
X006142Y002321D01*
X006080Y002383D01*
X005895Y002383D01*
X006263Y002383D02*
X006387Y002383D01*
X006325Y002383D02*
X006325Y002013D01*
X006263Y002013D02*
X006387Y002013D01*
X006509Y002074D02*
X006571Y002013D01*
X006694Y002013D01*
X006756Y002074D01*
X006756Y002321D01*
X006694Y002383D01*
X006571Y002383D01*
X006509Y002321D01*
X006509Y002074D01*
X012695Y016196D02*
X012695Y017017D01*
X013088Y017017D01*
X013172Y017014D01*
X013235Y017004D01*
X013281Y016984D01*
X013317Y016953D01*
X013357Y016887D01*
X013371Y016807D01*
X013370Y016775D01*
X013364Y016746D01*
X013354Y016719D01*
X013340Y016694D01*
X013322Y016672D01*
X013300Y016652D01*
X013274Y016634D01*
X013245Y016618D01*
X013245Y016219D01*
X013225Y016213D02*
X013225Y016360D01*
X013221Y016354D02*
X013234Y016377D01*
X013242Y016405D01*
X013245Y016437D01*
X013242Y016469D01*
X013236Y016496D01*
X013224Y016518D01*
X013208Y016536D01*
X013187Y016549D01*
X013160Y016558D01*
X013127Y016563D01*
X013088Y016565D01*
X012827Y016565D01*
X012827Y016300D01*
X013077Y016300D01*
X013116Y016303D01*
X013150Y016309D01*
X013179Y016320D01*
X013203Y016335D01*
X013221Y016354D01*
X013205Y016337D02*
X013205Y016208D01*
X013197Y016206D02*
X013056Y016196D01*
X012695Y016196D01*
X012705Y016196D02*
X012705Y017017D01*
X012725Y017017D02*
X012725Y016196D01*
X012745Y016196D02*
X012745Y017017D01*
X012765Y017017D02*
X012765Y016196D01*
X012785Y016196D02*
X012785Y017017D01*
X012805Y017017D02*
X012805Y016196D01*
X012825Y016196D02*
X012825Y017017D01*
X012845Y017017D02*
X012845Y016913D01*
X012827Y016913D02*
X012827Y016670D01*
X013088Y016670D01*
X013152Y016675D01*
X013193Y016695D01*
X013212Y016713D01*
X013225Y016736D01*
X013225Y016517D01*
X013205Y016538D02*
X013205Y016706D01*
X013185Y016689D02*
X013185Y016549D01*
X013165Y016556D02*
X013165Y016679D01*
X013145Y016674D02*
X013145Y016561D01*
X013125Y016564D02*
X013125Y016671D01*
X013105Y016670D02*
X013105Y016565D01*
X013085Y016565D02*
X013085Y016670D01*
X013065Y016670D02*
X013065Y016565D01*
X013045Y016565D02*
X013045Y016670D01*
X013025Y016670D02*
X013025Y016565D01*
X013005Y016565D02*
X013005Y016670D01*
X012985Y016670D02*
X012985Y016565D01*
X012965Y016565D02*
X012965Y016670D01*
X012945Y016670D02*
X012945Y016565D01*
X012925Y016565D02*
X012925Y016670D01*
X012905Y016670D02*
X012905Y016565D01*
X012885Y016565D02*
X012885Y016670D01*
X012865Y016670D02*
X012865Y016565D01*
X012845Y016565D02*
X012845Y016670D01*
X012827Y016913D02*
X013088Y016913D01*
X013161Y016906D01*
X013201Y016883D01*
X013227Y016844D01*
X013236Y016792D01*
X013233Y016762D01*
X013225Y016736D01*
X013225Y016849D02*
X013225Y017006D01*
X013205Y017010D02*
X013205Y016879D01*
X013185Y016896D02*
X013185Y017013D01*
X013165Y017015D02*
X013165Y016905D01*
X013145Y016909D02*
X013145Y017016D01*
X013125Y017017D02*
X013125Y016911D01*
X013105Y016912D02*
X013105Y017017D01*
X013085Y017017D02*
X013085Y016913D01*
X013065Y016913D02*
X013065Y017017D01*
X013045Y017017D02*
X013045Y016913D01*
X013025Y016913D02*
X013025Y017017D01*
X013005Y017017D02*
X013005Y016913D01*
X012985Y016913D02*
X012985Y017017D01*
X012965Y017017D02*
X012965Y016913D01*
X012945Y016913D02*
X012945Y017017D01*
X012925Y017017D02*
X012925Y016913D01*
X012905Y016913D02*
X012905Y017017D01*
X012885Y017017D02*
X012885Y016913D01*
X012865Y016913D02*
X012865Y017017D01*
X013245Y017001D02*
X013245Y016619D01*
X013245Y016618D02*
X013279Y016604D01*
X013308Y016588D01*
X013332Y016569D01*
X013351Y016547D01*
X013365Y016523D01*
X013365Y016331D01*
X013359Y016317D02*
X013329Y016273D01*
X013288Y016239D01*
X013197Y016206D01*
X013185Y016204D02*
X013185Y016323D01*
X013165Y016314D02*
X013165Y016201D01*
X013145Y016199D02*
X013145Y016308D01*
X013125Y016304D02*
X013125Y016198D01*
X013105Y016197D02*
X013105Y016301D01*
X013085Y016300D02*
X013085Y016196D01*
X013065Y016196D02*
X013065Y016300D01*
X013045Y016300D02*
X013045Y016196D01*
X013025Y016196D02*
X013025Y016300D01*
X013005Y016300D02*
X013005Y016196D01*
X012985Y016196D02*
X012985Y016300D01*
X012965Y016300D02*
X012965Y016196D01*
X012945Y016196D02*
X012945Y016300D01*
X012925Y016300D02*
X012925Y016196D01*
X012905Y016196D02*
X012905Y016300D01*
X012885Y016300D02*
X012885Y016196D01*
X012865Y016196D02*
X012865Y016300D01*
X012845Y016300D02*
X012845Y016196D01*
X013265Y016227D02*
X013265Y016610D01*
X013265Y016629D02*
X013265Y016993D01*
X013285Y016981D02*
X013285Y016641D01*
X013305Y016656D02*
X013305Y016965D01*
X013325Y016944D02*
X013325Y016676D01*
X013345Y016703D02*
X013345Y016914D01*
X013365Y016861D02*
X013365Y016753D01*
X013285Y016601D02*
X013285Y016237D01*
X013305Y016251D02*
X013305Y016589D01*
X013325Y016575D02*
X013325Y016269D01*
X013345Y016293D02*
X013345Y016555D01*
X013365Y016523D02*
X013376Y016495D01*
X013382Y016464D01*
X013384Y016429D01*
X013378Y016370D01*
X013359Y016317D01*
X013525Y016375D02*
X013525Y017017D01*
X013509Y017017D02*
X013641Y017017D01*
X013641Y016530D01*
X013650Y016417D01*
X013682Y016352D01*
X013713Y016324D01*
X013752Y016304D01*
X013801Y016292D01*
X013858Y016288D01*
X013923Y016293D01*
X013978Y016309D01*
X014022Y016335D01*
X014053Y016371D01*
X014064Y016396D01*
X014072Y016429D01*
X014076Y016475D01*
X014077Y016539D01*
X014077Y017017D01*
X014209Y017017D01*
X014209Y016539D01*
X014206Y016440D01*
X014194Y016369D01*
X014171Y016316D01*
X014134Y016273D01*
X014079Y016234D01*
X014012Y016206D01*
X013933Y016189D01*
X013842Y016183D01*
X013792Y016185D01*
X013747Y016191D01*
X013707Y016200D01*
X013670Y016212D01*
X013638Y016229D01*
X013608Y016249D01*
X013583Y016274D01*
X013560Y016303D01*
X013536Y016345D01*
X013521Y016393D01*
X013512Y016453D01*
X013509Y016530D01*
X013509Y017017D01*
X013545Y017017D02*
X013545Y016325D01*
X013565Y016295D02*
X013565Y017017D01*
X013585Y017017D02*
X013585Y016271D01*
X013605Y016252D02*
X013605Y017017D01*
X013625Y017017D02*
X013625Y016237D01*
X013645Y016224D02*
X013645Y016448D01*
X013665Y016376D02*
X013665Y016214D01*
X013685Y016206D02*
X013685Y016348D01*
X013705Y016329D02*
X013705Y016200D01*
X013725Y016195D02*
X013725Y016316D01*
X013745Y016307D02*
X013745Y016191D01*
X013765Y016188D02*
X013765Y016300D01*
X013785Y016295D02*
X013785Y016186D01*
X013805Y016184D02*
X013805Y016291D01*
X013825Y016289D02*
X013825Y016184D01*
X013845Y016183D02*
X013845Y016288D01*
X013865Y016288D02*
X013865Y016184D01*
X013885Y016185D02*
X013885Y016289D01*
X013905Y016291D02*
X013905Y016186D01*
X013925Y016188D02*
X013925Y016294D01*
X013945Y016298D02*
X013945Y016191D01*
X013965Y016194D02*
X013965Y016304D01*
X013985Y016312D02*
X013985Y016199D01*
X014005Y016204D02*
X014005Y016323D01*
X014025Y016338D02*
X014025Y016210D01*
X014045Y016218D02*
X014045Y016360D01*
X014065Y016399D02*
X014065Y016227D01*
X014085Y016237D02*
X014085Y017017D01*
X014105Y017017D02*
X014105Y016250D01*
X014125Y016266D02*
X014125Y017017D01*
X014145Y017017D02*
X014145Y016285D01*
X014165Y016309D02*
X014165Y017017D01*
X014185Y017017D02*
X014185Y016343D01*
X014205Y016432D02*
X014205Y017017D01*
X014365Y016900D02*
X014365Y016646D01*
X014379Y016629D02*
X014353Y016669D01*
X014336Y016716D01*
X014331Y016770D01*
X014333Y016804D01*
X014339Y016836D01*
X014349Y016867D01*
X014362Y016895D01*
X014380Y016922D01*
X014400Y016945D01*
X014423Y016965D01*
X014449Y016983D01*
X014530Y017009D01*
X014650Y017017D01*
X014988Y017017D01*
X014988Y016913D01*
X014650Y016913D01*
X014567Y016907D01*
X014517Y016889D01*
X014483Y016848D01*
X014470Y016788D01*
X014473Y016759D01*
X014481Y016735D01*
X014493Y016715D01*
X014511Y016699D01*
X014536Y016688D01*
X014567Y016680D01*
X014605Y016675D01*
X014650Y016674D01*
X014699Y016674D01*
X014792Y016671D01*
X014860Y016663D01*
X014909Y016648D01*
X014947Y016626D01*
X014981Y016589D01*
X015006Y016543D01*
X015027Y016431D01*
X015025Y016396D01*
X015019Y016363D01*
X015010Y016333D01*
X014996Y016305D01*
X014979Y016280D01*
X014959Y016259D01*
X014935Y016240D01*
X014907Y016224D01*
X014872Y016210D01*
X014829Y016201D01*
X014774Y016197D01*
X014699Y016196D01*
X014361Y016196D01*
X014361Y016300D01*
X014715Y016300D01*
X014759Y016302D01*
X014795Y016308D01*
X014825Y016317D01*
X014848Y016329D01*
X014866Y016346D01*
X014878Y016368D01*
X014885Y016395D01*
X014888Y016427D01*
X014869Y016505D01*
X014845Y016531D01*
X014845Y016666D01*
X014825Y016668D02*
X014825Y016542D01*
X014814Y016547D02*
X014769Y016554D01*
X014691Y016555D01*
X014623Y016555D01*
X014496Y016565D01*
X014415Y016597D01*
X014379Y016629D01*
X014385Y016622D02*
X014385Y016929D01*
X014405Y016950D02*
X014405Y016604D01*
X014425Y016591D02*
X014425Y016967D01*
X014445Y016981D02*
X014445Y016581D01*
X014465Y016573D02*
X014465Y016991D01*
X014485Y016998D02*
X014485Y016852D01*
X014505Y016879D02*
X014505Y017004D01*
X014525Y017008D02*
X014525Y016894D01*
X014545Y016902D02*
X014545Y017012D01*
X014565Y017014D02*
X014565Y016907D01*
X014585Y016910D02*
X014585Y017015D01*
X014605Y017016D02*
X014605Y016911D01*
X014625Y016912D02*
X014625Y017017D01*
X014645Y017017D02*
X014645Y016913D01*
X014665Y016913D02*
X014665Y017017D01*
X014685Y017017D02*
X014685Y016913D01*
X014705Y016913D02*
X014705Y017017D01*
X014725Y017017D02*
X014725Y016913D01*
X014745Y016913D02*
X014745Y017017D01*
X014765Y017017D02*
X014765Y016913D01*
X014785Y016913D02*
X014785Y017017D01*
X014805Y017017D02*
X014805Y016913D01*
X014825Y016913D02*
X014825Y017017D01*
X014845Y017017D02*
X014845Y016913D01*
X014865Y016913D02*
X014865Y017017D01*
X014885Y017017D02*
X014885Y016913D01*
X014905Y016913D02*
X014905Y017017D01*
X014925Y017017D02*
X014925Y016913D01*
X014945Y016913D02*
X014945Y017017D01*
X014965Y017017D02*
X014965Y016913D01*
X014985Y016913D02*
X014985Y017017D01*
X014932Y017298D02*
X014876Y017294D01*
X014819Y017298D01*
X014770Y017310D01*
X014727Y017329D01*
X014691Y017356D01*
X014664Y017390D01*
X014644Y017431D01*
X014632Y017479D01*
X014628Y017534D01*
X014644Y017638D01*
X014690Y017719D01*
X014690Y017357D01*
X014710Y017340D02*
X014710Y017739D01*
X014730Y017753D02*
X014730Y017581D01*
X014730Y017579D02*
X014727Y017540D01*
X014730Y017501D01*
X014737Y017467D01*
X014748Y017439D01*
X014764Y017415D01*
X014784Y017397D01*
X014809Y017384D01*
X014839Y017377D01*
X014873Y017374D01*
X014909Y017377D01*
X014939Y017384D01*
X014965Y017397D01*
X014986Y017415D01*
X015003Y017438D01*
X015015Y017466D01*
X015022Y017499D01*
X015024Y017538D01*
X015022Y017577D01*
X015014Y017612D01*
X015002Y017641D01*
X014986Y017666D01*
X014964Y017686D01*
X014939Y017699D01*
X014909Y017708D01*
X014875Y017711D01*
X014841Y017708D01*
X014812Y017700D01*
X014786Y017686D01*
X014765Y017667D01*
X014749Y017642D01*
X014737Y017613D01*
X014730Y017579D01*
X014750Y017645D02*
X014750Y017765D01*
X014769Y017773D02*
X014881Y017790D01*
X014937Y017786D01*
X014985Y017774D01*
X015027Y017754D01*
X015061Y017725D01*
X015089Y017690D01*
X015108Y017647D01*
X015120Y017597D01*
X015124Y017540D01*
X015120Y017485D01*
X015108Y017436D01*
X015087Y017394D01*
X015059Y017359D01*
X015023Y017330D01*
X014981Y017310D01*
X014932Y017298D01*
X014930Y017298D02*
X014930Y017381D01*
X014910Y017377D02*
X014910Y017296D01*
X014890Y017294D02*
X014890Y017375D01*
X014870Y017374D02*
X014870Y017294D01*
X014850Y017295D02*
X014850Y017375D01*
X014830Y017378D02*
X014830Y017297D01*
X014810Y017299D02*
X014810Y017384D01*
X014790Y017394D02*
X014790Y017304D01*
X014770Y017309D02*
X014770Y017409D01*
X014750Y017435D02*
X014750Y017317D01*
X014730Y017327D02*
X014730Y017498D01*
X014630Y017490D02*
X014630Y017576D01*
X014567Y017566D02*
X014476Y017566D01*
X014476Y017614D01*
X014471Y017658D01*
X014457Y017686D01*
X014431Y017700D01*
X014388Y017705D01*
X014350Y017705D01*
X014350Y017299D01*
X014253Y017299D01*
X014253Y017785D01*
X014378Y017785D01*
X014472Y017777D01*
X014528Y017748D01*
X014558Y017699D01*
X014567Y017614D01*
X014567Y017566D01*
X014550Y017566D02*
X014550Y017719D01*
X014530Y017746D02*
X014530Y017566D01*
X014510Y017566D02*
X014510Y017762D01*
X014490Y017772D02*
X014490Y017566D01*
X014470Y017662D02*
X014470Y017778D01*
X014450Y017781D02*
X014450Y017691D01*
X014430Y017700D02*
X014430Y017784D01*
X014410Y017785D02*
X014410Y017703D01*
X014390Y017705D02*
X014390Y017785D01*
X014370Y017785D02*
X014370Y017705D01*
X014350Y017705D02*
X014350Y017785D01*
X014330Y017785D02*
X014330Y017299D01*
X014310Y017299D02*
X014310Y017785D01*
X014290Y017785D02*
X014290Y017299D01*
X014270Y017299D02*
X014270Y017785D01*
X014165Y017785D02*
X013927Y017594D01*
X013976Y017594D01*
X014053Y017584D01*
X014104Y017554D01*
X014131Y017507D01*
X014138Y017431D01*
X014138Y017299D01*
X014041Y017299D01*
X014041Y017411D01*
X014035Y017473D01*
X014014Y017505D01*
X013997Y017514D01*
X013975Y017520D01*
X013945Y017523D01*
X013903Y017524D01*
X013812Y017524D01*
X013812Y017299D01*
X013715Y017299D01*
X013715Y017965D01*
X013812Y017965D01*
X013812Y017594D01*
X014041Y017785D01*
X014165Y017785D01*
X014150Y017785D02*
X014150Y017773D01*
X014130Y017785D02*
X014130Y017757D01*
X014110Y017741D02*
X014110Y017785D01*
X014090Y017785D02*
X014090Y017725D01*
X014070Y017709D02*
X014070Y017785D01*
X014050Y017785D02*
X014050Y017693D01*
X014030Y017677D02*
X014030Y017776D01*
X014010Y017759D02*
X014010Y017661D01*
X013990Y017645D02*
X013990Y017742D01*
X013970Y017726D02*
X013970Y017629D01*
X013950Y017613D02*
X013950Y017709D01*
X013930Y017692D02*
X013930Y017596D01*
X013930Y017594D02*
X013930Y017523D01*
X013910Y017524D02*
X013910Y017676D01*
X013890Y017659D02*
X013890Y017524D01*
X013870Y017524D02*
X013870Y017642D01*
X013850Y017626D02*
X013850Y017524D01*
X013830Y017524D02*
X013830Y017609D01*
X013950Y017594D02*
X013950Y017522D01*
X013970Y017521D02*
X013970Y017594D01*
X013990Y017593D02*
X013990Y017516D01*
X014010Y017507D02*
X014010Y017592D01*
X014030Y017590D02*
X014030Y017486D01*
X014090Y017566D02*
X014090Y017299D01*
X014070Y017299D02*
X014070Y017578D01*
X014050Y017585D02*
X014050Y017299D01*
X014110Y017299D02*
X014110Y017548D01*
X014130Y017510D02*
X014130Y017299D01*
X013810Y017299D02*
X013810Y017965D01*
X013790Y017965D02*
X013790Y017299D01*
X013770Y017299D02*
X013770Y017965D01*
X013750Y017965D02*
X013750Y017299D01*
X013730Y017299D02*
X013730Y017965D01*
X013577Y017965D02*
X013577Y017864D01*
X013480Y017864D01*
X013480Y017965D01*
X013577Y017965D01*
X013570Y017965D02*
X013570Y017864D01*
X013550Y017864D02*
X013550Y017965D01*
X013530Y017965D02*
X013530Y017864D01*
X013510Y017864D02*
X013510Y017965D01*
X013490Y017965D02*
X013490Y017864D01*
X013490Y017785D02*
X013490Y017299D01*
X013480Y017299D02*
X013480Y017785D01*
X013577Y017785D01*
X013577Y017299D01*
X013480Y017299D01*
X013510Y017299D02*
X013510Y017785D01*
X013530Y017785D02*
X013530Y017299D01*
X013550Y017299D02*
X013550Y017785D01*
X013570Y017785D02*
X013570Y017299D01*
X013350Y017299D02*
X013350Y017600D01*
X013347Y017654D01*
X013339Y017695D01*
X013324Y017726D01*
X013302Y017750D01*
X013275Y017769D01*
X013244Y017779D01*
X013198Y017784D01*
X013125Y017785D01*
X012695Y017785D01*
X012695Y017299D01*
X012791Y017299D01*
X012791Y017709D01*
X012971Y017709D01*
X012971Y017299D01*
X013068Y017299D01*
X013068Y017709D01*
X013143Y017709D01*
X013171Y017707D01*
X013195Y017703D01*
X013214Y017695D01*
X013229Y017685D01*
X013239Y017670D01*
X013247Y017651D01*
X013251Y017628D01*
X013253Y017600D01*
X013253Y017299D01*
X013350Y017299D01*
X013330Y017299D02*
X013330Y017716D01*
X013310Y017743D02*
X013310Y017299D01*
X013290Y017299D02*
X013290Y017760D01*
X013270Y017771D02*
X013270Y017299D01*
X013050Y017299D02*
X013050Y017785D01*
X013030Y017785D02*
X013030Y017299D01*
X013010Y017299D02*
X013010Y017785D01*
X012990Y017785D02*
X012990Y017299D01*
X012790Y017299D02*
X012790Y017785D01*
X012770Y017785D02*
X012770Y017299D01*
X012750Y017299D02*
X012750Y017785D01*
X012730Y017785D02*
X012730Y017299D01*
X012710Y017299D02*
X012710Y017785D01*
X012810Y017785D02*
X012810Y017709D01*
X012830Y017709D02*
X012830Y017785D01*
X012850Y017785D02*
X012850Y017709D01*
X012870Y017709D02*
X012870Y017785D01*
X012890Y017785D02*
X012890Y017709D01*
X012910Y017709D02*
X012910Y017785D01*
X012930Y017785D02*
X012930Y017709D01*
X012950Y017709D02*
X012950Y017785D01*
X012970Y017785D02*
X012970Y017709D01*
X013070Y017709D02*
X013070Y017785D01*
X013090Y017785D02*
X013090Y017709D01*
X013110Y017709D02*
X013110Y017785D01*
X013130Y017785D02*
X013130Y017709D01*
X013150Y017708D02*
X013150Y017785D01*
X013170Y017785D02*
X013170Y017707D01*
X013190Y017704D02*
X013190Y017785D01*
X013210Y017784D02*
X013210Y017697D01*
X013230Y017683D02*
X013230Y017782D01*
X013250Y017778D02*
X013250Y017636D01*
X014345Y016858D02*
X014345Y016685D01*
X014485Y016726D02*
X014485Y016568D01*
X014505Y016564D02*
X014505Y016704D01*
X014525Y016692D02*
X014525Y016561D01*
X014545Y016558D02*
X014545Y016685D01*
X014565Y016680D02*
X014565Y016557D01*
X014585Y016556D02*
X014585Y016677D01*
X014605Y016675D02*
X014605Y016556D01*
X014625Y016555D02*
X014625Y016674D01*
X014645Y016674D02*
X014645Y016555D01*
X014665Y016555D02*
X014665Y016674D01*
X014685Y016674D02*
X014685Y016555D01*
X014705Y016555D02*
X014705Y016674D01*
X014725Y016673D02*
X014725Y016555D01*
X014745Y016555D02*
X014745Y016673D01*
X014765Y016673D02*
X014765Y016554D01*
X014785Y016552D02*
X014785Y016672D01*
X014805Y016670D02*
X014805Y016549D01*
X014814Y016547D02*
X014845Y016531D01*
X014865Y016510D02*
X014865Y016662D01*
X014885Y016657D02*
X014885Y016458D01*
X014885Y016396D02*
X014885Y016214D01*
X014865Y016208D02*
X014865Y016346D01*
X014845Y016327D02*
X014845Y016204D01*
X014825Y016201D02*
X014825Y016317D01*
X014805Y016310D02*
X014805Y016199D01*
X014785Y016197D02*
X014785Y016306D01*
X014765Y016303D02*
X014765Y016197D01*
X014745Y016196D02*
X014745Y016301D01*
X014725Y016300D02*
X014725Y016196D01*
X014705Y016196D02*
X014705Y016300D01*
X014685Y016300D02*
X014685Y016196D01*
X014665Y016196D02*
X014665Y016300D01*
X014645Y016300D02*
X014645Y016196D01*
X014625Y016196D02*
X014625Y016300D01*
X014605Y016300D02*
X014605Y016196D01*
X014585Y016196D02*
X014585Y016300D01*
X014565Y016300D02*
X014565Y016196D01*
X014545Y016196D02*
X014545Y016300D01*
X014525Y016300D02*
X014525Y016196D01*
X014505Y016196D02*
X014505Y016300D01*
X014485Y016300D02*
X014485Y016196D01*
X014465Y016196D02*
X014465Y016300D01*
X014445Y016300D02*
X014445Y016196D01*
X014425Y016196D02*
X014425Y016300D01*
X014405Y016300D02*
X014405Y016196D01*
X014385Y016196D02*
X014385Y016300D01*
X014365Y016300D02*
X014365Y016196D01*
X014905Y016223D02*
X014905Y016650D01*
X014925Y016640D02*
X014925Y016234D01*
X014945Y016247D02*
X014945Y016627D01*
X014965Y016608D02*
X014965Y016265D01*
X014985Y016289D02*
X014985Y016582D01*
X015005Y016545D02*
X015005Y016323D01*
X015025Y016399D02*
X015025Y016464D01*
X014950Y017302D02*
X014950Y017389D01*
X014970Y017401D02*
X014970Y017307D01*
X014990Y017314D02*
X014990Y017419D01*
X015010Y017454D02*
X015010Y017323D01*
X015030Y017335D02*
X015030Y017752D01*
X015010Y017763D02*
X015010Y017624D01*
X014990Y017661D02*
X014990Y017772D01*
X014970Y017779D02*
X014970Y017681D01*
X014950Y017694D02*
X014950Y017784D01*
X014930Y017787D02*
X014930Y017703D01*
X014910Y017708D02*
X014910Y017789D01*
X014890Y017790D02*
X014890Y017710D01*
X014870Y017710D02*
X014870Y017790D01*
X014850Y017789D02*
X014850Y017709D01*
X014830Y017705D02*
X014830Y017787D01*
X014810Y017784D02*
X014810Y017699D01*
X014790Y017688D02*
X014790Y017780D01*
X014770Y017773D02*
X014770Y017672D01*
X014690Y017719D02*
X014769Y017773D01*
X014670Y017693D02*
X014670Y017381D01*
X014650Y017415D02*
X014650Y017654D01*
X015050Y017736D02*
X015050Y017350D01*
X015070Y017371D02*
X015070Y017716D01*
X015090Y017687D02*
X015090Y017399D01*
X015110Y017443D02*
X015110Y017641D01*
D13*
X017000Y017850D02*
X017060Y017848D01*
X017121Y017843D01*
X017180Y017834D01*
X017239Y017821D01*
X017298Y017805D01*
X017355Y017785D01*
X017410Y017762D01*
X017465Y017735D01*
X017517Y017706D01*
X017568Y017673D01*
X017617Y017637D01*
X017663Y017599D01*
X017707Y017557D01*
X017749Y017513D01*
X017787Y017467D01*
X017823Y017418D01*
X017856Y017367D01*
X017885Y017315D01*
X017912Y017260D01*
X017935Y017205D01*
X017955Y017148D01*
X017971Y017089D01*
X017984Y017030D01*
X017993Y016971D01*
X017998Y016910D01*
X018000Y016850D01*
X017500Y016100D02*
X017500Y008100D01*
X016500Y008100D01*
X016500Y016100D01*
X017500Y016100D01*
X017500Y015100D02*
X016500Y015100D01*
X008500Y015100D02*
X007500Y015100D01*
X007500Y016100D01*
X008500Y016100D01*
X008500Y015100D01*
X008500Y008100D01*
X007500Y008100D01*
X007500Y015100D01*
X007000Y016850D02*
X007002Y016910D01*
X007007Y016971D01*
X007016Y017030D01*
X007029Y017089D01*
X007045Y017148D01*
X007065Y017205D01*
X007088Y017260D01*
X007115Y017315D01*
X007144Y017367D01*
X007177Y017418D01*
X007213Y017467D01*
X007251Y017513D01*
X007293Y017557D01*
X007337Y017599D01*
X007383Y017637D01*
X007432Y017673D01*
X007483Y017706D01*
X007535Y017735D01*
X007590Y017762D01*
X007645Y017785D01*
X007702Y017805D01*
X007761Y017821D01*
X007820Y017834D01*
X007879Y017843D01*
X007940Y017848D01*
X008000Y017850D01*
X007000Y008100D02*
X007002Y008040D01*
X007007Y007979D01*
X007016Y007920D01*
X007029Y007861D01*
X007045Y007802D01*
X007065Y007745D01*
X007088Y007690D01*
X007115Y007635D01*
X007144Y007583D01*
X007177Y007532D01*
X007213Y007483D01*
X007251Y007437D01*
X007293Y007393D01*
X007337Y007351D01*
X007383Y007313D01*
X007432Y007277D01*
X007483Y007244D01*
X007535Y007215D01*
X007590Y007188D01*
X007645Y007165D01*
X007702Y007145D01*
X007761Y007129D01*
X007820Y007116D01*
X007879Y007107D01*
X007940Y007102D01*
X008000Y007100D01*
X016500Y007100D02*
X017500Y008100D01*
D14*
X011097Y016358D02*
X011097Y017065D01*
X011619Y017065D01*
X011619Y017717D01*
X011619Y017065D02*
X012141Y017065D01*
X012141Y016413D01*
X011097Y017065D02*
X010578Y017065D01*
X010578Y017717D01*
X010578Y017065D02*
X010056Y017065D01*
X010056Y016359D01*
D15*
X010056Y016387D03*
X011097Y016387D03*
X012141Y016387D03*
X011619Y017739D03*
X010578Y017739D03*
D16*
X006925Y015770D02*
X006925Y015430D01*
X006698Y015770D01*
X006698Y015430D01*
X006557Y015430D02*
X006557Y015657D01*
X006443Y015770D01*
X006330Y015657D01*
X006330Y015430D01*
X006330Y015600D02*
X006557Y015600D01*
X006450Y014770D02*
X006507Y014714D01*
X006507Y014600D01*
X006450Y014543D01*
X006280Y014543D01*
X006280Y014430D02*
X006280Y014770D01*
X006450Y014770D01*
X006648Y014714D02*
X006648Y014657D01*
X006705Y014600D01*
X006818Y014600D01*
X006875Y014543D01*
X006875Y014487D01*
X006818Y014430D01*
X006705Y014430D01*
X006648Y014487D01*
X006507Y014430D02*
X006393Y014543D01*
X006648Y014714D02*
X006705Y014770D01*
X006818Y014770D01*
X006875Y014714D01*
X007017Y014770D02*
X007243Y014770D01*
X007130Y014770D02*
X007130Y014430D01*
X006968Y013770D02*
X006855Y013770D01*
X006798Y013714D01*
X006798Y013657D01*
X006855Y013600D01*
X006968Y013600D01*
X007025Y013543D01*
X007025Y013487D01*
X006968Y013430D01*
X006855Y013430D01*
X006798Y013487D01*
X006657Y013487D02*
X006600Y013430D01*
X006487Y013430D01*
X006430Y013487D01*
X006430Y013714D01*
X006487Y013770D01*
X006600Y013770D01*
X006657Y013714D01*
X006968Y013770D02*
X007025Y013714D01*
X006967Y012770D02*
X006967Y012430D01*
X006967Y012543D02*
X007193Y012770D01*
X007023Y012600D02*
X007193Y012430D01*
X006825Y012487D02*
X006768Y012430D01*
X006655Y012430D01*
X006598Y012487D01*
X006598Y012714D01*
X006655Y012770D01*
X006768Y012770D01*
X006825Y012714D01*
X006457Y012714D02*
X006400Y012770D01*
X006287Y012770D01*
X006230Y012714D01*
X006230Y012657D01*
X006287Y012600D01*
X006400Y012600D01*
X006457Y012543D01*
X006457Y012487D01*
X006400Y012430D01*
X006287Y012430D01*
X006230Y012487D01*
X006130Y011770D02*
X006243Y011657D01*
X006357Y011770D01*
X006357Y011430D01*
X006498Y011430D02*
X006612Y011430D01*
X006555Y011430D02*
X006555Y011770D01*
X006498Y011770D02*
X006612Y011770D01*
X006744Y011714D02*
X006744Y011657D01*
X006801Y011600D01*
X006914Y011600D01*
X006971Y011543D01*
X006971Y011487D01*
X006914Y011430D01*
X006801Y011430D01*
X006744Y011487D01*
X006744Y011714D02*
X006801Y011770D01*
X006914Y011770D01*
X006971Y011714D01*
X007112Y011714D02*
X007112Y011487D01*
X007169Y011430D01*
X007282Y011430D01*
X007339Y011487D01*
X007339Y011714D01*
X007282Y011770D01*
X007169Y011770D01*
X007112Y011714D01*
X006130Y011770D02*
X006130Y011430D01*
X006130Y010770D02*
X006243Y010657D01*
X006357Y010770D01*
X006357Y010430D01*
X006498Y010487D02*
X006555Y010430D01*
X006668Y010430D01*
X006725Y010487D01*
X006725Y010714D01*
X006668Y010770D01*
X006555Y010770D01*
X006498Y010714D01*
X006498Y010487D01*
X006130Y010430D02*
X006130Y010770D01*
X006867Y010714D02*
X006867Y010657D01*
X006923Y010600D01*
X007037Y010600D01*
X007093Y010543D01*
X007093Y010487D01*
X007037Y010430D01*
X006923Y010430D01*
X006867Y010487D01*
X006867Y010714D02*
X006923Y010770D01*
X007037Y010770D01*
X007093Y010714D01*
X007235Y010770D02*
X007348Y010770D01*
X007292Y010770D02*
X007292Y010430D01*
X007348Y010430D02*
X007235Y010430D01*
X007221Y009770D02*
X007278Y009714D01*
X007278Y009657D01*
X007221Y009600D01*
X007278Y009543D01*
X007278Y009487D01*
X007221Y009430D01*
X007108Y009430D01*
X007051Y009487D01*
X006923Y009487D02*
X006923Y009430D01*
X006867Y009430D01*
X006867Y009487D01*
X006923Y009487D01*
X006725Y009487D02*
X006668Y009430D01*
X006555Y009430D01*
X006498Y009487D01*
X006612Y009600D02*
X006668Y009600D01*
X006725Y009543D01*
X006725Y009487D01*
X006668Y009600D02*
X006725Y009657D01*
X006725Y009714D01*
X006668Y009770D01*
X006555Y009770D01*
X006498Y009714D01*
X006357Y009600D02*
X006130Y009600D01*
X006243Y009487D02*
X006243Y009714D01*
X007051Y009714D02*
X007108Y009770D01*
X007221Y009770D01*
X007221Y009600D02*
X007164Y009600D01*
X007037Y008870D02*
X006867Y008870D01*
X006867Y008530D01*
X007037Y008530D01*
X007093Y008587D01*
X007093Y008814D01*
X007037Y008870D01*
X006725Y008870D02*
X006725Y008530D01*
X006498Y008870D01*
X006498Y008530D01*
X006357Y008587D02*
X006300Y008530D01*
X006187Y008530D01*
X006130Y008587D01*
X006130Y008814D01*
X006187Y008870D01*
X006300Y008870D01*
X006357Y008814D01*
X006357Y008700D02*
X006243Y008700D01*
X006357Y008700D02*
X006357Y008587D01*
X017875Y009600D02*
X018102Y009600D01*
X018243Y009600D02*
X018357Y009657D01*
X018414Y009657D01*
X018470Y009600D01*
X018470Y009487D01*
X018414Y009430D01*
X018300Y009430D01*
X018243Y009487D01*
X018243Y009600D02*
X018243Y009770D01*
X018470Y009770D01*
X018612Y009770D02*
X018612Y009543D01*
X018725Y009430D01*
X018839Y009543D01*
X018839Y009770D01*
X018939Y010430D02*
X018939Y010657D01*
X018825Y010770D01*
X018712Y010657D01*
X018712Y010430D01*
X018570Y010487D02*
X018570Y010714D01*
X018514Y010770D01*
X018343Y010770D01*
X018343Y010430D01*
X018514Y010430D01*
X018570Y010487D01*
X018712Y010600D02*
X018939Y010600D01*
X018202Y010543D02*
X018202Y010487D01*
X018145Y010430D01*
X018032Y010430D01*
X017975Y010487D01*
X018032Y010600D02*
X018145Y010600D01*
X018202Y010543D01*
X018202Y010714D02*
X018145Y010770D01*
X018032Y010770D01*
X017975Y010714D01*
X017975Y010657D01*
X018032Y010600D01*
X018032Y011430D02*
X017975Y011487D01*
X018032Y011430D02*
X018145Y011430D01*
X018202Y011487D01*
X018202Y011543D01*
X018145Y011600D01*
X018032Y011600D01*
X017975Y011657D01*
X017975Y011714D01*
X018032Y011770D01*
X018145Y011770D01*
X018202Y011714D01*
X018343Y011714D02*
X018343Y011487D01*
X018400Y011430D01*
X018514Y011430D01*
X018570Y011487D01*
X018712Y011430D02*
X018939Y011430D01*
X018712Y011430D02*
X018712Y011770D01*
X018570Y011714D02*
X018514Y011770D01*
X018400Y011770D01*
X018343Y011714D01*
X018257Y012430D02*
X018257Y012770D01*
X018370Y012770D02*
X018143Y012770D01*
X018512Y012770D02*
X018739Y012430D01*
X018512Y012430D02*
X018739Y012770D01*
X018689Y013430D02*
X018462Y013770D01*
X018320Y013714D02*
X018320Y013600D01*
X018264Y013543D01*
X018093Y013543D01*
X018093Y013430D02*
X018093Y013770D01*
X018264Y013770D01*
X018320Y013714D01*
X018207Y013543D02*
X018320Y013430D01*
X018462Y013430D02*
X018689Y013770D01*
X018675Y014430D02*
X018675Y014770D01*
X018562Y014770D02*
X018789Y014770D01*
X018420Y014770D02*
X018420Y014430D01*
X018193Y014770D01*
X018193Y014430D01*
X018061Y014430D02*
X017948Y014430D01*
X018005Y014430D02*
X018005Y014770D01*
X018061Y014770D02*
X017948Y014770D01*
X017925Y015430D02*
X017925Y015770D01*
X018095Y015770D01*
X018152Y015714D01*
X018152Y015600D01*
X018095Y015543D01*
X017925Y015543D01*
X018293Y015430D02*
X018407Y015543D01*
X018520Y015430D01*
X018520Y015770D01*
X018662Y015770D02*
X018775Y015657D01*
X018889Y015770D01*
X018889Y015430D01*
X018662Y015430D02*
X018662Y015770D01*
X018293Y015770D02*
X018293Y015430D01*
X017988Y009714D02*
X017988Y009487D01*
X018187Y008870D02*
X018130Y008814D01*
X018130Y008587D01*
X018187Y008530D01*
X018300Y008530D01*
X018357Y008587D01*
X018357Y008700D01*
X018243Y008700D01*
X018357Y008814D02*
X018300Y008870D01*
X018187Y008870D01*
X018498Y008870D02*
X018725Y008530D01*
X018725Y008870D01*
X018867Y008870D02*
X019037Y008870D01*
X019093Y008814D01*
X019093Y008587D01*
X019037Y008530D01*
X018867Y008530D01*
X018867Y008870D01*
X018498Y008870D02*
X018498Y008530D01*
M02*
