G75*
%MOIN*%
%OFA0B0*%
%FSLAX24Y24*%
%IPPOS*%
%LPD*%
%AMOC8*
5,1,8,0,0,1.08239X$1,22.5*
%
%ADD10C,0.0000*%
%ADD11C,0.0050*%
D10*
X000500Y000100D02*
X000500Y006100D01*
X000502Y006160D01*
X000507Y006221D01*
X000516Y006280D01*
X000529Y006339D01*
X000545Y006398D01*
X000565Y006455D01*
X000588Y006510D01*
X000615Y006565D01*
X000644Y006617D01*
X000677Y006668D01*
X000713Y006717D01*
X000751Y006763D01*
X000793Y006807D01*
X000837Y006849D01*
X000883Y006887D01*
X000932Y006923D01*
X000983Y006956D01*
X001035Y006985D01*
X001090Y007012D01*
X001145Y007035D01*
X001202Y007055D01*
X001261Y007071D01*
X001320Y007084D01*
X001379Y007093D01*
X001440Y007098D01*
X001500Y007100D01*
X002500Y007100D01*
X002576Y007102D01*
X002652Y007108D01*
X002727Y007117D01*
X002802Y007131D01*
X002876Y007148D01*
X002949Y007169D01*
X003021Y007193D01*
X003092Y007222D01*
X003161Y007253D01*
X003228Y007288D01*
X003293Y007327D01*
X003357Y007369D01*
X003418Y007414D01*
X003477Y007462D01*
X003533Y007513D01*
X003587Y007567D01*
X003638Y007623D01*
X003686Y007682D01*
X003731Y007743D01*
X003773Y007807D01*
X003812Y007872D01*
X003847Y007939D01*
X003878Y008008D01*
X003907Y008079D01*
X003931Y008151D01*
X003952Y008224D01*
X003969Y008298D01*
X003983Y008373D01*
X003992Y008448D01*
X003998Y008524D01*
X004000Y008600D01*
X004000Y017100D01*
X004002Y017160D01*
X004007Y017221D01*
X004016Y017280D01*
X004029Y017339D01*
X004045Y017398D01*
X004065Y017455D01*
X004088Y017510D01*
X004115Y017565D01*
X004144Y017617D01*
X004177Y017668D01*
X004213Y017717D01*
X004251Y017763D01*
X004293Y017807D01*
X004337Y017849D01*
X004383Y017887D01*
X004432Y017923D01*
X004483Y017956D01*
X004535Y017985D01*
X004590Y018012D01*
X004645Y018035D01*
X004702Y018055D01*
X004761Y018071D01*
X004820Y018084D01*
X004879Y018093D01*
X004940Y018098D01*
X005000Y018100D01*
X020000Y018100D01*
X020060Y018098D01*
X020121Y018093D01*
X020180Y018084D01*
X020239Y018071D01*
X020298Y018055D01*
X020355Y018035D01*
X020410Y018012D01*
X020465Y017985D01*
X020517Y017956D01*
X020568Y017923D01*
X020617Y017887D01*
X020663Y017849D01*
X020707Y017807D01*
X020749Y017763D01*
X020787Y017717D01*
X020823Y017668D01*
X020856Y017617D01*
X020885Y017565D01*
X020912Y017510D01*
X020935Y017455D01*
X020955Y017398D01*
X020971Y017339D01*
X020984Y017280D01*
X020993Y017221D01*
X020998Y017160D01*
X021000Y017100D01*
X021000Y008100D01*
X021015Y008033D01*
X021034Y007966D01*
X021057Y007901D01*
X021083Y007837D01*
X021112Y007775D01*
X021145Y007714D01*
X021181Y007655D01*
X021220Y007598D01*
X021263Y007543D01*
X021308Y007491D01*
X021356Y007441D01*
X021406Y007394D01*
X021459Y007350D01*
X021514Y007309D01*
X021572Y007270D01*
X021631Y007235D01*
X021692Y007203D01*
X021755Y007175D01*
X021820Y007150D01*
X021885Y007128D01*
X021952Y007110D01*
X022020Y007096D01*
X022088Y007085D01*
X022156Y007078D01*
X022225Y007075D01*
X022294Y007076D01*
X022363Y007080D01*
X022432Y007088D01*
X022500Y007100D01*
X024000Y007100D01*
X024060Y007098D01*
X024121Y007093D01*
X024180Y007084D01*
X024239Y007071D01*
X024298Y007055D01*
X024355Y007035D01*
X024410Y007012D01*
X024465Y006985D01*
X024517Y006956D01*
X024568Y006923D01*
X024617Y006887D01*
X024663Y006849D01*
X024707Y006807D01*
X024749Y006763D01*
X024787Y006717D01*
X024823Y006668D01*
X024856Y006617D01*
X024885Y006565D01*
X024912Y006510D01*
X024935Y006455D01*
X024955Y006398D01*
X024971Y006339D01*
X024984Y006280D01*
X024993Y006221D01*
X024998Y006160D01*
X025000Y006100D01*
X025000Y000100D01*
X000500Y000100D01*
X008750Y008100D02*
X008750Y016100D01*
X016250Y016100D01*
X016250Y008100D01*
X008750Y008100D01*
D11*
X008000Y007100D02*
X016500Y007100D01*
M02*
